<svg width="701" height="646" viewBox="0 0 701 646" fill="none" xmlns="http://www.w3.org/2000/svg">
<ellipse cx="233.5" cy="457.623" rx="190.5" ry="188" fill="#13505B" fill-opacity="0.95"/>
<ellipse cx="453.5" cy="357.123" rx="162.5" ry="160.5" fill="#13505B" fill-opacity="0.92"/>
<ellipse cx="304" cy="257.123" rx="120" ry="118.5" fill="#13505B" fill-opacity="0.65"/>
<path d="M793.293 519.448H-1.33514e-05V519.845H793.293V519.448Z" fill="#EBEBEB"/>
<path d="M713.805 544.976H661.257V545.373H713.805V544.976Z" fill="#EBEBEB"/>
<path d="M525.509 549.292H511.721V549.688H525.509V549.292Z" fill="#EBEBEB"/>
<path d="M659.67 530.253H584.038V530.649H659.67V530.253Z" fill="#EBEBEB"/>
<path d="M120.803 532.918H83.2323V533.315H120.803V532.918Z" fill="#EBEBEB"/>
<path d="M175.936 532.918H134.923V533.315H175.936V532.918Z" fill="#EBEBEB"/>
<path d="M311.145 539.614H208.588V540.01H311.145V539.614Z" fill="#EBEBEB"/>
<path d="M376.021 448.686H69.667C67.267 448.682 64.9668 447.726 63.2712 446.027C61.5757 444.329 60.6234 442.027 60.6234 439.627V8.98007C60.6443 6.59389 61.6058 4.3123 63.2991 2.6309C64.9924 0.949505 67.2807 0.00408766 69.667 0H376.021C378.423 0 380.728 0.95447 382.427 2.65344C384.126 4.35241 385.08 6.6567 385.08 9.0594V439.627C385.08 442.03 384.126 444.334 382.427 446.033C380.728 447.732 378.423 448.686 376.021 448.686ZM69.667 0.317318C67.3722 0.321521 65.1729 1.23605 63.5517 2.86018C61.9306 4.48431 61.0201 6.68531 61.0201 8.98007V439.627C61.0201 441.922 61.9306 444.123 63.5517 445.747C65.1729 447.371 67.3722 448.285 69.667 448.29H376.021C378.317 448.285 380.518 447.371 382.142 445.748C383.765 444.124 384.679 441.923 384.684 439.627V8.98007C384.679 6.68386 383.765 4.48288 382.142 2.85921C380.518 1.23554 378.317 0.321512 376.021 0.317318H69.667Z" fill="#EBEBEB"/>
<path d="M719.215 448.686H412.845C410.444 448.682 408.142 447.726 406.444 446.028C404.746 444.33 403.79 442.028 403.786 439.627V8.98007C403.811 6.59244 404.776 4.31087 406.472 2.62991C408.168 0.94895 410.458 0.00404308 412.845 0H719.215C721.599 0.00825738 723.883 0.95552 725.573 2.63647C727.263 4.31743 728.222 6.59663 728.243 8.98007V439.627C728.243 442.024 727.293 444.324 725.6 446.022C723.908 447.72 721.612 448.678 719.215 448.686ZM412.845 0.317318C410.549 0.321512 408.348 1.23554 406.725 2.85921C405.101 4.48288 404.187 6.68386 404.183 8.98007V439.627C404.187 441.923 405.101 444.124 406.725 445.748C408.348 447.371 410.549 448.285 412.845 448.29H719.215C721.511 448.285 723.712 447.371 725.336 445.748C726.96 444.124 727.874 441.923 727.878 439.627V8.98007C727.874 6.68386 726.96 4.48288 725.336 2.85921C723.712 1.23554 721.511 0.321512 719.215 0.317318H412.845Z" fill="#EBEBEB"/>
<path d="M700.335 41.2513H449.702V519.448H700.335V41.2513Z" fill="#EBEBEB"/>
<path d="M681.692 56.8474H468.344V519.448H681.692V56.8474Z" fill="#F5F5F5"/>
<path d="M605.028 95.211H545.04V111.791H605.028V95.211Z" fill="white"/>
<path d="M632.048 259.914H664.589C665.935 259.914 667.227 260.449 668.179 261.401C669.131 262.354 669.666 263.645 669.666 264.992C669.666 266.338 669.131 267.629 668.179 268.582C667.227 269.534 665.935 270.069 664.589 270.069H632.048C630.701 270.069 629.41 269.534 628.458 268.582C627.506 267.629 626.971 266.338 626.971 264.992C626.971 263.645 627.506 262.354 628.458 261.401C629.41 260.449 630.701 259.914 632.048 259.914Z" fill="white"/>
<path d="M278.351 92.133H111.664V226.469H278.351V92.133Z" fill="#EBEBEB"/>
<path d="M269.386 217.521V101.081L120.596 101.081V217.521H269.386Z" fill="#FAFAFA"/>
<path d="M252.045 160.832V155.263H137.954V160.832H252.045Z" fill="#E0E0E0"/>
<path d="M252.045 173.509V167.94H137.954V173.509H252.045Z" fill="#E0E0E0"/>
<path d="M252.045 186.17V180.601H137.954V186.17H252.045Z" fill="#E0E0E0"/>
<path d="M223.439 198.847V193.278H166.56V198.847H223.439Z" fill="#E0E0E0"/>
<path d="M138.033 101.081C138.033 103.368 137.581 105.632 136.702 107.743C135.824 109.855 134.537 111.771 132.915 113.383C131.292 114.995 129.368 116.27 127.251 117.135C125.134 118 122.867 118.437 120.58 118.423C117.425 118.43 114.329 117.569 111.632 115.932V92.133H135.431C137.098 94.8225 137.998 97.917 138.033 101.081Z" fill="#EBEBEB"/>
<path d="M278.351 92.133V115.932C275.034 117.927 271.145 118.755 267.303 118.284C263.461 117.813 259.887 116.071 257.15 113.334C254.413 110.597 252.67 107.023 252.199 103.181C251.729 99.3389 252.557 95.4499 254.552 92.133H278.351Z" fill="#EBEBEB"/>
<path d="M138.033 217.537C138.038 220.684 137.183 223.773 135.558 226.469H111.759V202.67C114.391 201.094 117.394 200.244 120.462 200.206C123.53 200.169 126.553 200.945 129.223 202.456C131.894 203.967 134.116 206.158 135.663 208.807C137.211 211.457 138.028 214.469 138.033 217.537Z" fill="#EBEBEB"/>
<path d="M278.351 202.655V226.453H254.552C252.915 223.762 252.053 220.671 252.061 217.521C252.064 214.449 252.882 211.432 254.431 208.779C255.98 206.126 258.205 203.931 260.879 202.419C263.553 200.906 266.581 200.129 269.653 200.168C272.725 200.206 275.731 201.059 278.366 202.639L278.351 202.655Z" fill="#EBEBEB"/>
<path d="M209.586 131.819C210.893 123.766 205.424 116.179 197.372 114.872C189.32 113.565 181.732 119.033 180.425 127.085C179.118 135.138 184.586 142.725 192.639 144.032C200.691 145.339 208.278 139.871 209.586 131.819Z" fill="#E0E0E0"/>
<path d="M413.052 328.661H83.2323V340.529H413.052V328.661Z" fill="#EBEBEB"/>
<path d="M410.196 340.529H303.038V519.448H410.196V340.529Z" fill="#F5F5F5"/>
<path d="M194.468 340.529H87.3098V519.448H194.468V340.529Z" fill="#F5F5F5"/>
<path d="M90.9748 340.529H87.3098V519.448H90.9748V340.529Z" fill="#EBEBEB"/>
<path d="M306.703 340.529H303.038V519.448H306.703V340.529Z" fill="#EBEBEB"/>
<path d="M143.586 300.055H123.881L125.467 328.661H141.999L143.586 300.055Z" fill="#F0F0F0"/>
<path d="M314.668 316.254H211.714V328.661H314.668V316.254Z" fill="#F0F0F0"/>
<path d="M314.683 317.714H267.213V327.217H314.683V317.714Z" fill="#FAFAFA"/>
<path d="M396.646 591.098C566.542 591.098 704.269 583.057 704.269 573.138C704.269 563.219 566.542 555.178 396.646 555.178C226.751 555.178 89.0233 563.219 89.0233 573.138C89.0233 583.057 226.751 591.098 396.646 591.098Z" fill="#F5F5F5"/>
<path d="M540.566 462.045C568.325 462.045 590.829 439.542 590.829 411.782C590.829 384.023 568.325 361.519 540.566 361.519C512.806 361.519 490.303 384.023 490.303 411.782C490.303 439.542 512.806 462.045 540.566 462.045Z" fill="white"/>
<path d="M540.566 462.664C530.501 462.667 520.662 459.686 512.293 454.097C503.923 448.508 497.399 440.562 493.546 431.265C489.692 421.968 488.682 411.737 490.644 401.866C492.605 391.994 497.45 382.927 504.565 375.809C511.681 368.692 520.747 363.844 530.617 361.879C540.488 359.915 550.719 360.922 560.018 364.772C569.316 368.623 577.264 375.145 582.855 383.512C588.447 391.88 591.431 401.718 591.431 411.782C591.419 425.27 586.056 438.203 576.52 447.742C566.984 457.281 554.054 462.647 540.566 462.664ZM540.566 362.154C530.746 362.154 521.147 365.066 512.983 370.522C504.819 375.977 498.456 383.732 494.699 392.804C490.942 401.876 489.96 411.859 491.876 421.489C493.793 431.12 498.523 439.965 505.467 446.908C512.412 453.85 521.259 458.577 530.89 460.491C540.521 462.404 550.504 461.419 559.575 457.659C568.646 453.899 576.398 447.534 581.851 439.368C587.304 431.202 590.213 421.602 590.21 411.782C590.197 398.621 584.962 386.003 575.654 376.698C566.347 367.393 553.727 362.162 540.566 362.154Z" fill="#119DA4"/>
<path d="M548.657 383.287H532.474V440.277H548.657V383.287Z" fill="#119DA4"/>
<path d="M569.061 419.89V403.707H512.07V419.89H569.061Z" fill="#119DA4"/>
<path d="M200.084 31.8427L199.005 30.6845C206.35 23.7417 215.669 19.2511 225.676 17.8332L225.898 19.4198C216.214 20.7855 207.194 25.1266 200.084 31.8427Z" fill="#119DA4"/>
<path d="M188.344 49.1841L186.868 48.6129C188.47 44.5711 190.604 40.7613 193.214 37.2847L194.484 38.2366C191.966 41.6012 189.902 45.2818 188.344 49.1841Z" fill="#119DA4"/>
<path d="M232.609 109.966C256.654 109.966 276.145 90.4745 276.145 66.4303C276.145 42.3861 256.654 22.8944 232.609 22.8944C208.565 22.8944 189.073 42.3861 189.073 66.4303C189.073 90.4745 208.565 109.966 232.609 109.966Z" fill="#119DA4"/>
<path d="M258.613 46.8201C256.937 45.0794 254.93 43.6905 252.71 42.7346C250.49 41.7786 248.102 41.2749 245.685 41.2527C243.268 41.2306 240.871 41.6905 238.634 42.6055C236.397 43.5206 234.365 44.8725 232.657 46.5821C230.95 44.873 228.919 43.5214 226.683 42.6065C224.448 41.6917 222.052 41.2319 219.637 41.254C217.221 41.2762 214.834 41.7799 212.616 42.7356C210.397 43.6913 208.392 45.0799 206.716 46.8201C203.433 50.3717 201.664 55.0636 201.786 59.8987C201.907 64.7338 203.909 69.331 207.367 72.7132L227.992 93.3388C228.611 93.9577 229.346 94.4486 230.154 94.7835C230.963 95.1184 231.829 95.2908 232.704 95.2908C233.58 95.2908 234.446 95.1184 235.255 94.7835C236.063 94.4486 236.798 93.9577 237.417 93.3388L258.042 72.7132C261.489 69.3205 263.477 64.7176 263.583 59.8826C263.69 55.0475 261.907 50.3615 258.613 46.8201Z" fill="white"/>
<path d="M232.609 85.4535C232.29 85.4425 231.981 85.3352 231.723 85.1455C231.465 84.9557 231.271 84.6926 231.165 84.3905L221.979 57.5296L218.14 68.7626C218.031 69.0747 217.827 69.345 217.556 69.5356C217.286 69.7262 216.963 69.8276 216.632 69.8256H201.258C200.838 69.8256 200.434 69.6584 200.136 69.3609C199.839 69.0634 199.672 68.6598 199.672 68.239C199.672 67.8182 199.839 67.4147 200.136 67.1171C200.434 66.8196 200.838 66.6524 201.258 66.6524H215.538L220.52 52.1034C220.627 51.7917 220.83 51.5213 221.099 51.33C221.367 51.1386 221.689 51.0358 222.019 51.0358C222.349 51.0358 222.67 51.1386 222.939 51.33C223.208 51.5213 223.41 51.7917 223.518 52.1034L232.863 79.4403L241.938 58.069C242.053 57.7966 242.242 57.5617 242.483 57.3907C242.724 57.2197 243.008 57.1194 243.303 57.1012C243.6 57.0841 243.896 57.1509 244.157 57.294C244.418 57.4371 244.633 57.6507 244.778 57.9103L249.57 66.6366H264.024C264.444 66.6366 264.848 66.8037 265.146 67.1013C265.443 67.3988 265.61 67.8024 265.61 68.2232C265.61 68.6439 265.443 69.0475 265.146 69.345C264.848 69.6426 264.444 69.8097 264.024 69.8097H248.65C248.366 69.8121 248.087 69.7382 247.841 69.5959C247.595 69.4536 247.393 69.248 247.253 69.0006L243.493 62.2735L234.069 84.4856C233.947 84.7724 233.744 85.0171 233.485 85.1892C233.225 85.3613 232.921 85.4532 232.609 85.4535Z" fill="#119DA4"/>
<path d="M474.167 517.544H308.575C305.877 517.574 303.202 517.042 300.72 515.983C298.239 514.923 296.005 513.359 294.16 511.389C292.316 509.419 290.902 507.087 290.007 504.542C289.113 501.996 288.758 499.292 288.965 496.601L315.73 99.9549C316.198 94.2902 318.755 89.0016 322.904 85.1166C327.053 81.2316 332.497 79.0275 338.181 78.9326H503.804C506.51 78.9017 509.192 79.4355 511.679 80.5C514.167 81.5644 516.405 83.1361 518.25 85.1146C520.096 87.093 521.508 89.4347 522.398 91.9901C523.287 94.5454 523.633 97.2581 523.414 99.9549L496.601 496.601C496.119 502.25 493.557 507.519 489.413 511.388C485.268 515.257 479.836 517.451 474.167 517.544Z" fill="#263238"/>
<path d="M510.88 240.463H506.708C505.952 240.472 505.203 240.323 504.508 240.026C503.814 239.729 503.189 239.29 502.673 238.738C502.158 238.185 501.764 237.531 501.516 236.817C501.268 236.103 501.172 235.346 501.234 234.593L506.359 158.77C506.478 157.184 507.188 155.701 508.349 154.614C509.509 153.526 511.036 152.915 512.626 152.899H516.798C517.554 152.89 518.303 153.039 518.998 153.336C519.693 153.633 520.318 154.072 520.833 154.625C521.348 155.177 521.742 155.831 521.99 156.545C522.238 157.259 522.334 158.017 522.272 158.77L517.148 234.593C517.028 236.178 516.318 237.661 515.158 238.749C513.997 239.836 512.471 240.447 510.88 240.463Z" fill="#263238"/>
<path d="M313.319 189.883H309.162C308.547 189.891 307.937 189.771 307.37 189.531C306.804 189.291 306.294 188.936 305.872 188.489C305.449 188.041 305.125 187.511 304.918 186.932C304.712 186.352 304.628 185.736 304.672 185.123L306.528 157.738C306.645 156.453 307.233 155.256 308.179 154.377C309.125 153.499 310.362 153.001 311.653 152.979H315.826C316.439 152.975 317.046 153.098 317.609 153.34C318.173 153.581 318.68 153.937 319.1 154.383C319.52 154.83 319.843 155.358 320.05 155.936C320.256 156.513 320.341 157.127 320.3 157.738L318.444 185.123C318.33 186.41 317.743 187.609 316.796 188.488C315.85 189.367 314.611 189.864 313.319 189.883Z" fill="#119DA4"/>
<path d="M310.019 238.781H305.846C305.232 238.787 304.624 238.666 304.059 238.425C303.495 238.184 302.986 237.829 302.566 237.382C302.146 236.934 301.823 236.405 301.617 235.827C301.412 235.248 301.328 234.634 301.372 234.021L303.228 206.637C303.345 205.351 303.933 204.154 304.879 203.276C305.825 202.397 307.062 201.899 308.353 201.877H312.557C313.17 201.874 313.778 201.996 314.341 202.238C314.904 202.48 315.412 202.835 315.832 203.282C316.252 203.728 316.575 204.257 316.781 204.834C316.988 205.412 317.073 206.025 317.032 206.637L315.175 234.021C315.061 235.314 314.469 236.517 313.516 237.397C312.563 238.277 311.316 238.77 310.019 238.781Z" fill="#119DA4"/>
<path d="M470.661 517.544H305.069C302.37 517.574 299.695 517.042 297.214 515.983C294.732 514.923 292.498 513.359 290.654 511.389C288.81 509.419 287.395 507.087 286.501 504.542C285.606 501.996 285.251 499.292 285.458 496.601L312.24 99.9549C312.724 94.2882 315.298 89.004 319.462 85.1303C323.627 81.2565 329.083 79.07 334.769 78.9961H500.298C502.998 78.9659 505.674 79.4981 508.157 80.5587C510.64 81.6194 512.874 83.1852 514.719 85.1567C516.563 87.1281 517.977 89.4619 518.871 92.0097C519.764 94.5574 520.118 97.2632 519.908 99.9549L493.111 496.601C492.628 502.253 490.064 507.524 485.916 511.394C481.769 515.263 476.332 517.455 470.661 517.544Z" fill="#119DA4"/>
<path opacity="0.3" d="M287.204 492.159L313.351 105.095H518.115L491.968 492.159H287.204Z" fill="white"/>
<path opacity="0.1" d="M368.04 492.159L441.118 105.095H486.986L413.908 492.159H368.04Z" fill="white"/>
<path opacity="0.1" d="M333.389 492.159L406.467 105.095H429.711L356.633 492.159H333.389Z" fill="white"/>
<path d="M396.868 88.7218H436.803C437.136 88.7161 437.467 88.7805 437.774 88.9108C438.081 89.0411 438.357 89.2345 438.584 89.4783C438.811 89.7221 438.985 90.011 439.094 90.3262C439.202 90.6414 439.243 90.9759 439.214 91.308C439.159 92.007 438.846 92.6606 438.336 93.1415C437.826 93.6225 437.155 93.8964 436.454 93.91H396.519C396.185 93.9134 395.854 93.847 395.547 93.7149C395.24 93.5828 394.965 93.3879 394.738 93.1429C394.51 92.8979 394.337 92.608 394.229 92.292C394.12 91.976 394.079 91.6408 394.108 91.308C394.163 90.6105 394.477 89.9587 394.987 89.4804C395.498 89.002 396.169 88.7315 396.868 88.7218Z" fill="white"/>
<path d="M388.555 555.701L374.561 557.034L369.516 524.747L383.509 523.399L388.555 555.701Z" fill="#FFB573"/>
<path d="M372.959 550.196L387.619 545.643C387.871 545.555 388.148 545.568 388.391 545.681C388.634 545.793 388.823 545.996 388.92 546.245L393.679 557.875C393.798 558.187 393.85 558.52 393.833 558.853C393.817 559.186 393.731 559.511 393.582 559.81C393.433 560.108 393.223 560.372 392.967 560.585C392.711 560.798 392.413 560.956 392.093 561.048C386.794 562.635 381.748 563 375.354 565.808C367.882 568.981 364.756 573.233 356.712 573.233C350.953 573.233 349.652 567.95 352.095 567.22C363.201 563.857 361.741 561.096 369.801 552.417C370.639 551.411 371.729 550.645 372.959 550.196Z" fill="#263238"/>
<path opacity="0.2" d="M369.516 524.747L372.118 541.406L386.127 540.058L383.525 523.399L369.516 524.747Z" fill="black"/>
<path d="M379.638 116.773C361.281 114.615 343.02 116.059 324.695 119.613C321.641 120.205 318.855 121.755 316.742 124.037C314.628 126.319 313.296 129.215 312.938 132.305C310.955 149.853 308.686 189.184 317.539 247.856L392.553 241.51C392.696 230.864 385.128 182.362 391.379 132.036C391.635 130.259 391.532 128.449 391.077 126.713C390.622 124.977 389.824 123.349 388.729 121.927C387.635 120.504 386.267 119.315 384.705 118.43C383.144 117.545 381.421 116.981 379.638 116.773Z" fill="white"/>
<path d="M335.959 131.813L338.641 137.176C338.766 137.447 338.965 137.677 339.214 137.839C339.464 138.002 339.755 138.091 340.053 138.096L342.956 138.255C343.474 138.278 343.984 138.121 344.4 137.811L349.398 134.082L343.226 129.592L335.959 131.813Z" fill="#263238"/>
<path d="M343.051 136.716C341.993 136.226 340.795 136.13 339.672 136.446C337.308 144.776 334.722 168.686 334.452 179.284C341.624 200.179 343.972 202.29 343.972 202.29L347.605 177.142C347.605 177.142 343.527 151.424 343.051 136.716Z" fill="#263238"/>
<path d="M363.756 80.5985C362.043 90.9431 360.583 109.839 368.008 116.519C362.566 122.231 355.443 128.847 343.226 129.592C331.009 130.338 332.897 121.881 335.991 117.36C347.399 114.313 346.843 105.809 344.606 97.8606L363.756 80.5985Z" fill="#FFB573"/>
<path d="M371.118 115.614C370.253 115.241 369.356 114.949 368.437 114.742C368.212 114.682 367.974 114.698 367.759 114.787C367.544 114.876 367.364 115.033 367.247 115.234C366.073 117.233 362.487 126.165 343.226 129.592C346.399 131.464 350.604 137.271 352.412 140.064C358.187 137.065 373.212 128.101 371.785 116.503C371.755 116.311 371.679 116.13 371.563 115.975C371.447 115.82 371.294 115.696 371.118 115.614Z" fill="#F5F5F5"/>
<path d="M336.102 117.836C336.143 117.655 336.138 117.467 336.087 117.289C336.037 117.111 335.943 116.949 335.813 116.816C335.684 116.684 335.524 116.586 335.347 116.531C335.17 116.476 334.983 116.467 334.801 116.503C334.134 116.632 333.477 116.807 332.834 117.027C332.685 117.085 332.546 117.165 332.421 117.265C330.946 118.629 322.902 130.243 330.438 139.635C332.025 137.081 337.498 131.29 343.226 129.592C337.8 127.149 335.134 122.595 336.102 117.836Z" fill="#F5F5F5"/>
<path opacity="0.2" d="M355.95 87.643L344.622 97.8606C345.168 99.7061 345.551 101.596 345.765 103.509C350.143 102.763 356.03 97.7971 356.347 93.196C356.562 91.3364 356.427 89.4532 355.95 87.643Z" fill="black"/>
<path d="M340.814 49.3269C331.041 53.1506 330.406 61.1787 331.295 69.9525C332.183 78.7263 341.735 72.9195 343.861 67.4299C345.987 61.9403 354.348 44.0277 340.814 49.3269Z" fill="#263238"/>
<path d="M371.991 66.827C369.278 80.6461 368.373 88.8488 360.472 95.211C348.557 104.73 332.421 96.512 330.993 82.2644C329.708 69.429 334.357 48.9461 348.589 44.948C351.692 44.0342 354.981 43.946 358.129 44.6922C361.277 45.4383 364.176 46.993 366.539 49.2026C368.903 51.4122 370.649 54.2001 371.605 57.2911C372.561 60.382 372.694 63.6689 371.991 66.827Z" fill="#FFB573"/>
<path d="M371.42 78.2662C359.79 78.885 362.249 72.2848 364.359 68.4929C366.469 64.7009 362.17 58.4339 364.978 55.1814C359.964 57.1805 354.681 55.5305 347.97 50.8659C342.766 47.2326 336.245 61.7499 329.899 54.4675C323.901 47.5975 329.47 37.2371 343.877 35.5712C358.283 33.9053 360.901 44.0912 370.357 43.1868C379.813 42.2825 376.528 50.0726 374.672 51.6592C382.605 52.1828 386.936 59.7667 371.42 78.2662Z" fill="#263238"/>
<path d="M372.848 52.627C374.667 51.629 376.187 50.1629 377.25 48.3805C378.312 46.598 378.88 44.564 378.892 42.4888C382.034 47.9942 381.701 54.2454 372.848 52.627Z" fill="#263238"/>
<path d="M342.702 81.5822C343.967 81.801 345.262 81.762 346.511 81.4676C347.759 81.1731 348.936 80.6293 349.969 79.8687C350 79.8391 350.025 79.8034 350.042 79.7638C350.059 79.7243 350.068 79.6817 350.068 79.6387C350.068 79.5956 350.059 79.553 350.042 79.5135C350.025 79.4739 350 79.4383 349.969 79.4086C349.907 79.3495 349.825 79.3164 349.739 79.3164C349.653 79.3164 349.571 79.3495 349.509 79.4086C348.352 80.2288 347.02 80.769 345.619 80.9865C344.217 81.204 342.784 81.0929 341.433 80.662C341.347 80.6405 341.256 80.6513 341.177 80.6922C341.098 80.7331 341.037 80.8013 341.005 80.8841C340.98 80.9683 340.989 81.0588 341.031 81.136C341.073 81.2133 341.143 81.271 341.227 81.2966C341.709 81.4358 342.203 81.5313 342.702 81.5822Z" fill="#263238"/>
<path d="M374.799 82.5024C372.627 85.302 369.442 87.1366 365.93 87.6112C361.313 88.2141 359.774 83.9145 361.71 79.9004C363.471 76.283 368.056 71.6184 372.308 72.8718C376.56 74.1252 377.465 79.0119 374.799 82.5024Z" fill="#FFB573"/>
<path d="M370.214 382.954C370.769 341.528 376.068 242.859 376.068 242.859L317.587 247.793C317.587 247.793 329.216 349.477 336.229 391.744C343.527 435.676 365.914 538.598 365.914 538.598L389.713 536.567C389.713 536.567 381.018 414.987 370.214 382.954Z" fill="#263238"/>
<path d="M364.486 539.249L392.712 536.853L391.601 527.746L362.186 529.713L364.486 539.249Z" fill="#119DA4"/>
<path d="M351.143 67.652C351 68.7785 350.27 69.6352 349.556 69.5559C348.843 69.4766 348.351 68.4929 348.509 67.3505C348.668 66.2082 349.382 65.3673 350.096 65.4466C350.81 65.526 351.302 66.5255 351.143 67.652Z" fill="#263238"/>
<path d="M338.196 66.6366C338.054 67.7789 337.324 68.6198 336.61 68.5405C335.896 68.4611 335.404 67.4775 335.563 66.351C335.721 65.2245 336.435 64.3678 337.149 64.4471C337.863 64.5264 338.355 65.4466 338.196 66.6366Z" fill="#263238"/>
<path d="M341.846 67.9693C339.935 70.9053 337.64 73.5731 335.023 75.9022C336.705 77.6633 340.18 77.1874 340.18 77.1874L341.846 67.9693Z" fill="#ED893E"/>
<path opacity="0.4" d="M330.01 66.9221C329.772 68.7309 331.596 70.2381 334.119 70.5554C336.642 70.8727 338.974 69.4924 339.196 67.6837" fill="#119DA4"/>
<path opacity="0.4" d="M345.003 68.6039C344.654 70.3968 346.415 72.0151 348.89 72.4911C351.365 72.967 353.793 71.6978 354.126 69.9208" fill="#119DA4"/>
<path d="M349.874 72.9829C349.588 72.9987 349.302 72.9987 349.017 72.9829C347.798 72.8371 346.652 72.3223 345.733 71.5074C345.332 71.1647 345.019 70.7308 344.82 70.2422C344.621 69.7536 344.543 69.2244 344.59 68.6991C343.785 68.3485 342.927 68.1341 342.052 68.0645C341.172 67.8448 340.251 67.8448 339.371 68.0645C339.148 70.0001 336.737 71.3329 334.04 70.9997C332.82 70.8664 331.672 70.3562 330.755 69.54C330.357 69.1956 330.045 68.7615 329.846 68.2733C329.648 67.7852 329.568 67.2568 329.613 66.7318L330.375 66.827C330.343 67.2326 330.408 67.6401 330.565 68.0155C330.723 68.3908 330.967 68.7231 331.279 68.9847C332.078 69.6882 333.076 70.1261 334.135 70.2381C336.42 70.5396 338.45 69.4765 338.657 67.89C338.768 67.0015 340.608 67.0649 342.131 67.2553C343.654 67.4457 345.463 67.8741 345.304 68.7467C345.271 69.1525 345.336 69.5604 345.493 69.936C345.651 70.3115 345.896 70.6437 346.209 70.9045C347.018 71.5985 348.012 72.0405 349.07 72.1759C350.127 72.3112 351.201 72.134 352.159 71.666C352.528 71.494 352.851 71.2355 353.099 70.9124C353.348 70.5893 353.515 70.2111 353.586 69.8097V69.429L373.165 71.9516L373.07 72.7132L354.221 70.2857C354.084 70.7273 353.859 71.1365 353.559 71.4883C353.259 71.8402 352.89 72.1273 352.476 72.3324C351.674 72.7568 350.781 72.98 349.874 72.9829Z" fill="#263238"/>
<path d="M356.125 62.6701C356.238 62.6704 356.348 62.6373 356.442 62.5749C356.597 62.4852 356.709 62.3386 356.757 62.1666C356.804 61.9946 356.783 61.8108 356.696 61.6547C356.204 60.7319 355.492 59.9449 354.623 59.3637C353.754 58.7824 352.755 58.4249 351.714 58.3229C351.536 58.3142 351.361 58.3757 351.228 58.4944C351.094 58.6131 351.013 58.7793 351 58.9575C350.992 59.1317 351.051 59.3024 351.167 59.4329C351.283 59.5634 351.445 59.6434 351.619 59.6556C352.442 59.7523 353.23 60.0485 353.913 60.5185C354.596 60.9886 355.154 61.6182 355.538 62.3528C355.598 62.4538 355.684 62.5366 355.788 62.5925C355.891 62.6483 356.008 62.6752 356.125 62.6701Z" fill="#263238"/>
<path d="M334.008 60.8773C334.118 60.888 334.229 60.872 334.331 60.8305C334.433 60.7891 334.524 60.7235 334.595 60.6393C335.108 59.9674 335.771 59.4252 336.532 59.056C337.292 58.6868 338.129 58.5009 338.974 58.5133C339.062 58.522 339.15 58.5133 339.234 58.4877C339.318 58.462 339.397 58.42 339.465 58.3639C339.532 58.3079 339.588 58.2389 339.63 58.1611C339.671 58.0832 339.696 57.998 339.704 57.9104C339.715 57.8248 339.709 57.738 339.686 57.6548C339.663 57.5716 339.624 57.4938 339.571 57.4259C339.518 57.358 339.452 57.3013 339.376 57.2592C339.301 57.2171 339.218 57.1903 339.133 57.1805C338.067 57.1526 337.009 57.3749 336.045 57.8295C335.081 58.2842 334.236 58.9585 333.58 59.7984C333.466 59.9333 333.411 60.1074 333.426 60.2828C333.441 60.4582 333.525 60.6206 333.659 60.7345C333.762 60.8089 333.882 60.8578 334.008 60.8773Z" fill="#263238"/>
<path d="M418.938 376.275C406.8 313.89 404.072 265.103 392.553 241.415L335.896 247.761C335.896 247.761 369.643 340.719 386.127 380.4C403.246 421.651 437.041 492.127 437.041 492.127H465.345C465.345 492.127 438.929 404.69 418.938 376.275Z" fill="#263238"/>
<path d="M239.352 140.111L233.228 136.24C232.234 135.6 231.048 135.324 229.874 135.46C228.699 135.596 227.608 136.135 226.787 136.986L222.63 141.365C222.182 141.837 221.836 142.397 221.613 143.008C221.39 143.62 221.295 144.271 221.334 144.921C221.372 145.571 221.544 146.206 221.838 146.787C222.132 147.367 222.542 147.882 223.042 148.298L226.009 150.837C228.59 153.024 231.6 154.645 234.846 155.596L243.811 158.246L249.697 151.9C251.49 145.284 239.352 140.111 239.352 140.111Z" fill="#FFB573"/>
<path d="M330.01 137.144C327.789 142.571 325.615 147.616 323.251 152.772C320.887 157.929 318.491 163.022 315.842 168.083C313.192 173.144 310.368 178.174 307.163 183.219C305.576 185.726 303.815 188.232 301.816 190.755C299.667 193.537 297.22 196.075 294.518 198.323C292.734 199.781 290.765 200.997 288.663 201.941C287.997 202.194 287.378 202.448 286.648 202.67L285.538 202.972C284.979 203.109 284.412 203.21 283.84 203.273C281.906 203.491 279.948 203.351 278.065 202.861C275.71 202.202 273.473 201.179 271.433 199.83C269.905 198.877 268.447 197.817 267.07 196.657C262.491 192.66 258.271 188.269 254.457 183.536C250.76 179.094 247.269 174.635 243.922 170.082C240.574 165.528 237.353 161.054 234.053 156.279L251.601 144.95C257.138 153.89 263.266 162.45 269.942 170.574C273.011 174.337 276.391 177.834 280.048 181.029C280.757 181.609 281.504 182.139 282.285 182.616C282.872 183.013 283.459 183.171 283.047 183.028C282.489 182.875 281.905 182.843 281.333 182.933C281.102 182.955 280.874 182.997 280.651 183.06H280.524C280.445 183.06 280.445 183.06 280.429 183.06C280.79 182.825 281.134 182.565 281.46 182.283C282.908 180.968 284.221 179.512 285.379 177.936C286.728 176.127 288.076 174.096 289.361 171.986C291.988 167.599 294.382 163.076 296.533 158.436C298.754 153.677 300.896 148.917 302.879 143.967C304.862 139.017 306.75 133.987 308.353 129.18L330.01 137.144Z" fill="#119DA4"/>
<g opacity="0.6">
<path d="M330.01 137.144C327.789 142.571 325.615 147.616 323.251 152.772C320.887 157.929 318.491 163.022 315.842 168.083C313.192 173.144 310.368 178.174 307.163 183.219C305.576 185.726 303.815 188.232 301.816 190.755C299.667 193.537 297.22 196.075 294.518 198.323C292.734 199.781 290.765 200.997 288.663 201.941C287.997 202.194 287.378 202.448 286.648 202.67L285.538 202.972C284.979 203.109 284.412 203.21 283.84 203.273C281.906 203.491 279.948 203.351 278.065 202.861C275.71 202.202 273.473 201.179 271.433 199.83C269.905 198.877 268.447 197.817 267.07 196.657C262.491 192.66 258.271 188.269 254.457 183.536C250.76 179.094 247.269 174.635 243.922 170.082C240.574 165.528 237.353 161.054 234.053 156.279L251.601 144.95C257.138 153.89 263.266 162.45 269.942 170.574C273.011 174.337 276.391 177.834 280.048 181.029C280.757 181.609 281.504 182.139 282.285 182.616C282.872 183.013 283.459 183.171 283.047 183.028C282.489 182.875 281.905 182.843 281.333 182.933C281.102 182.955 280.874 182.997 280.651 183.06H280.524C280.445 183.06 280.445 183.06 280.429 183.06C280.79 182.825 281.134 182.565 281.46 182.283C282.908 180.968 284.221 179.512 285.379 177.936C286.728 176.127 288.076 174.096 289.361 171.986C291.988 167.599 294.382 163.076 296.533 158.436C298.754 153.677 300.896 148.917 302.879 143.967C304.862 139.017 306.75 133.987 308.353 129.18L330.01 137.144Z" fill="white"/>
</g>
<path d="M371.547 112.79C365.597 123.896 344.416 166.211 341.846 192.326C332.469 168.527 334.516 115.884 334.516 115.884C327.833 116.536 321.278 118.138 315.048 120.644C313.041 121.469 311.301 122.833 310.021 124.586C308.741 126.339 307.972 128.412 307.798 130.576C305.971 157.815 306.832 185.167 310.368 212.238C316.952 263.484 323.061 343.178 323.061 343.178C323.061 343.178 375.497 340.989 415.955 332.453C411.021 293.28 394.14 227.627 393.981 210.048C393.791 187.423 394.314 143.189 395.028 124.721C395.148 122.114 394.331 119.55 392.724 117.493C391.118 115.435 388.829 114.021 386.27 113.504C381.417 112.605 376.464 112.365 371.547 112.79Z" fill="#119DA4"/>
<path opacity="0.7" d="M371.547 112.79C365.597 123.896 344.416 166.211 341.846 192.326C332.469 168.527 334.516 115.884 334.516 115.884C327.833 116.536 321.278 118.138 315.048 120.644C313.041 121.469 311.301 122.833 310.021 124.586C308.741 126.339 307.972 128.412 307.798 130.576C305.971 157.815 306.832 185.167 310.368 212.238C316.952 263.484 323.061 343.178 323.061 343.178C323.061 343.178 375.497 340.989 415.955 332.453C411.021 293.28 394.14 227.627 393.981 210.048C393.791 187.423 394.314 143.173 395.028 124.706C395.178 122.178 394.431 119.678 392.919 117.646C391.407 115.614 389.227 114.181 386.762 113.6C381.753 112.618 376.631 112.345 371.547 112.79Z" fill="white"/>
<path d="M359.187 334.674C350.08 284.427 342.861 210.699 342.274 201.83H343.083C343.67 210.699 350.905 284.332 359.996 334.579L359.187 334.674Z" fill="white"/>
<path d="M354.649 245.286H306.29C305.314 245.242 304.378 244.883 303.623 244.262C302.868 243.641 302.334 242.793 302.102 241.843L285.934 166.687C285.816 166.276 285.797 165.844 285.878 165.425C285.96 165.005 286.139 164.612 286.403 164.275C286.666 163.939 287.005 163.671 287.393 163.491C287.78 163.312 288.205 163.227 288.632 163.244H336.975C337.954 163.284 338.894 163.642 339.652 164.263C340.41 164.884 340.946 165.735 341.179 166.687L357.347 241.843C357.465 242.253 357.484 242.686 357.403 243.105C357.321 243.524 357.142 243.918 356.878 244.254C356.615 244.59 356.276 244.859 355.888 245.039C355.501 245.218 355.076 245.303 354.649 245.286Z" fill="white"/>
<path d="M353.142 245.921H303.958C302.964 245.874 302.011 245.508 301.242 244.876C300.473 244.244 299.928 243.381 299.69 242.414L283.237 165.989C283.119 165.57 283.102 165.129 283.187 164.702C283.272 164.276 283.457 163.875 283.726 163.533C283.995 163.191 284.341 162.918 284.736 162.735C285.131 162.553 285.563 162.466 285.998 162.482H335.182C336.176 162.528 337.129 162.895 337.898 163.527C338.667 164.159 339.212 165.022 339.45 165.989L355.887 242.414C356.008 242.832 356.028 243.272 355.945 243.699C355.863 244.126 355.68 244.528 355.412 244.87C355.144 245.212 354.798 245.486 354.404 245.669C354.009 245.852 353.577 245.938 353.142 245.921Z" fill="#119DA4"/>
<path d="M358.775 202.797L346.542 202.337C345.071 202.287 343.606 202.546 342.242 203.099L335.896 205.637C335.301 205.873 334.759 206.227 334.303 206.677C333.848 207.127 333.488 207.664 333.245 208.257C333.002 208.849 332.881 209.485 332.889 210.125C332.898 210.766 333.036 211.398 333.294 211.984L335.833 217.473C336.345 218.538 337.208 219.394 338.277 219.896C339.346 220.399 340.556 220.518 341.703 220.234L348.7 218.489C348.7 218.489 361.837 217.442 362.313 210.556L358.775 202.797Z" fill="#FFB573"/>
<path d="M392.553 119.597C395.583 124.357 398.36 128.704 401.089 133.368C403.818 138.033 406.499 142.65 409.022 147.473C411.544 152.296 413.94 157.278 416.114 162.609C417.242 165.401 418.207 168.256 419.001 171.161C420.024 174.701 420.495 178.377 420.398 182.061V182.679C420.403 182.785 420.403 182.891 420.398 182.997C420.398 183.568 420.239 184.139 420.128 184.71C420.017 185.281 419.874 185.726 419.715 186.297C419.557 186.868 419.382 187.169 419.208 187.614C418.601 188.986 417.823 190.277 416.891 191.453C415.595 193.073 414.121 194.542 412.496 195.832C410.001 197.798 407.348 199.554 404.563 201.084C399.666 203.762 394.623 206.167 389.459 208.287C384.461 210.413 379.48 212.349 374.466 214.173C369.452 215.998 364.518 217.759 359.298 219.504L353.253 199.513C358.013 198.212 362.868 196.61 367.612 194.991C372.356 193.373 377.131 191.564 381.637 189.676C386.059 187.849 390.371 185.768 394.552 183.441C396.316 182.463 397.998 181.343 399.582 180.093C399.997 179.778 400.371 179.41 400.692 178.999C400.556 179.152 400.448 179.33 400.375 179.522C400.375 179.665 400.296 179.76 400.216 179.935C400.154 180.121 400.106 180.312 400.073 180.506C400.007 180.75 399.964 180.999 399.946 181.251C399.946 181.347 399.946 181.363 399.946 181.331V181.22C399.836 179.714 399.543 178.228 399.074 176.793C398.439 174.716 397.687 172.677 396.821 170.685C394.881 166.293 392.688 162.018 390.252 157.881C387.777 153.629 385.144 149.377 382.319 145.188C379.495 141 376.608 136.827 373.704 133.019L392.553 119.597Z" fill="#119DA4"/>
<g opacity="0.7">
<path d="M392.553 119.597C395.583 124.357 398.36 128.704 401.089 133.368C403.818 138.033 406.499 142.65 409.022 147.473C411.544 152.296 413.94 157.278 416.114 162.609C417.242 165.401 418.207 168.256 419.001 171.161C420.024 174.701 420.495 178.377 420.398 182.061V182.679C420.403 182.785 420.403 182.891 420.398 182.997C420.398 183.568 420.239 184.139 420.128 184.71C420.017 185.281 419.874 185.726 419.715 186.297C419.557 186.868 419.382 187.169 419.208 187.614C418.601 188.986 417.823 190.277 416.891 191.453C415.595 193.073 414.121 194.542 412.496 195.832C410.001 197.798 407.348 199.554 404.563 201.084C399.666 203.762 394.623 206.167 389.459 208.287C384.461 210.413 379.48 212.349 374.466 214.173C369.452 215.998 364.518 217.759 359.298 219.504L353.253 199.513C358.013 198.212 362.868 196.61 367.612 194.991C372.356 193.373 377.131 191.564 381.637 189.676C386.059 187.849 390.371 185.768 394.552 183.441C396.316 182.463 397.998 181.343 399.582 180.093C399.997 179.778 400.371 179.41 400.692 178.999C400.556 179.152 400.448 179.33 400.375 179.522C400.375 179.665 400.296 179.76 400.216 179.935C400.154 180.121 400.106 180.312 400.073 180.506C400.007 180.75 399.964 180.999 399.946 181.251C399.946 181.347 399.946 181.363 399.946 181.331V181.22C399.836 179.714 399.543 178.228 399.074 176.793C398.439 174.716 397.687 172.677 396.821 170.685C394.881 166.293 392.688 162.018 390.252 157.881C387.777 153.629 385.144 149.377 382.319 145.188C379.495 141 376.608 136.827 373.704 133.019L392.553 119.597Z" fill="white"/>
</g>
<path d="M376.497 174.651C376.391 174.65 376.287 174.622 376.196 174.569C376.104 174.516 376.027 174.441 375.973 174.35C375.927 174.281 375.895 174.203 375.879 174.121C375.863 174.039 375.864 173.954 375.882 173.873C375.9 173.791 375.934 173.714 375.982 173.646C376.031 173.578 376.092 173.521 376.164 173.477L378.639 171.891C380.949 170.434 382.762 168.31 383.839 165.799C384.915 163.289 385.204 160.511 384.668 157.833L379.686 132.607C379.321 130.721 378.331 129.012 376.875 127.759C375.419 126.505 373.583 125.779 371.664 125.699C369.744 125.618 367.854 126.187 366.298 127.314C364.742 128.441 363.612 130.06 363.09 131.909L356.03 156.644C355.259 159.258 355.301 162.046 356.151 164.636C357.001 167.226 358.619 169.496 360.79 171.145L363.138 172.922C363.27 173.025 363.356 173.177 363.377 173.343C363.397 173.51 363.351 173.678 363.249 173.81C363.199 173.875 363.137 173.93 363.066 173.971C362.995 174.011 362.917 174.038 362.836 174.048C362.754 174.058 362.672 174.052 362.593 174.031C362.514 174.009 362.441 173.972 362.376 173.921L360.155 172.16C357.769 170.364 355.986 167.884 355.042 165.05C354.099 162.217 354.039 159.163 354.872 156.294L361.948 131.56C362.555 129.448 363.855 127.601 365.637 126.316C367.42 125.031 369.583 124.382 371.779 124.473C373.975 124.565 376.076 125.391 377.746 126.82C379.416 128.249 380.557 130.198 380.987 132.353L385.969 157.596C386.557 160.521 386.242 163.556 385.066 166.299C383.89 169.042 381.909 171.363 379.384 172.954L376.893 174.54C376.838 174.585 376.775 174.617 376.706 174.636C376.638 174.656 376.567 174.661 376.497 174.651Z" fill="#263238"/>
<path d="M380.305 133.13L362.487 132.385C362.404 132.381 362.322 132.36 362.247 132.324C362.171 132.289 362.103 132.238 362.047 132.177C361.991 132.115 361.948 132.042 361.92 131.964C361.892 131.885 361.88 131.802 361.884 131.718C361.9 131.553 361.977 131.399 362.101 131.288C362.224 131.176 362.384 131.115 362.551 131.115L380.352 131.861C380.435 131.865 380.517 131.886 380.593 131.921C380.668 131.957 380.736 132.007 380.792 132.069C380.848 132.131 380.891 132.203 380.919 132.282C380.947 132.361 380.959 132.444 380.955 132.527C380.953 132.61 380.934 132.692 380.9 132.767C380.866 132.842 380.818 132.91 380.757 132.966C380.696 133.022 380.625 133.066 380.547 133.094C380.47 133.122 380.387 133.135 380.305 133.13Z" fill="#263238"/>
<path d="M371.642 125.737C371.477 125.733 371.32 125.667 371.203 125.552C371.085 125.438 371.015 125.282 371.007 125.118C371.007 121.945 370.023 116.439 367.057 115.234C366.974 115.206 366.899 115.162 366.834 115.104C366.77 115.046 366.718 114.976 366.682 114.897C366.646 114.818 366.626 114.733 366.624 114.647C366.622 114.56 366.638 114.474 366.67 114.394C366.703 114.313 366.752 114.241 366.813 114.18C366.875 114.119 366.948 114.072 367.029 114.04C367.11 114.009 367.196 113.995 367.283 113.998C367.369 114.001 367.454 114.022 367.532 114.06C371.927 115.868 372.292 124.15 372.292 125.166C372.292 125.333 372.228 125.494 372.113 125.615C371.998 125.736 371.84 125.808 371.673 125.816L371.642 125.737Z" fill="#263238"/>
<path d="M317.143 147.299H317.016C316.852 147.264 316.708 147.167 316.616 147.027C316.524 146.887 316.491 146.717 316.524 146.553C318.618 136.129 327.281 119.676 334.912 114.821C334.982 114.778 335.059 114.749 335.14 114.736C335.221 114.723 335.304 114.726 335.384 114.745C335.464 114.764 335.539 114.799 335.605 114.848C335.671 114.896 335.727 114.957 335.769 115.027C335.815 115.095 335.847 115.172 335.862 115.253C335.878 115.334 335.877 115.417 335.859 115.497C335.841 115.577 335.807 115.653 335.759 115.719C335.711 115.786 335.649 115.842 335.579 115.884C328.201 120.549 319.792 136.51 317.761 146.775C317.735 146.921 317.659 147.053 317.546 147.148C317.433 147.244 317.291 147.297 317.143 147.299Z" fill="#263238"/>
<path d="M322.347 148.933C321.363 151.455 319.173 152.979 317.587 152.328C316 151.678 315.381 149.155 316.365 146.569C317.349 143.983 319.538 142.523 321.125 143.189C322.711 143.856 323.346 146.41 322.347 148.933Z" fill="white"/>
<path d="M364.232 173.509C364.232 174.683 363.503 175.619 362.725 175.587C361.948 175.556 361.345 174.572 361.392 173.382C361.44 172.192 362.122 171.256 362.9 171.304C363.677 171.351 364.28 172.319 364.232 173.509Z" fill="white"/>
<path d="M377.909 174.08C377.909 175.254 377.195 176.19 376.402 176.159C375.608 176.127 375.037 175.143 375.085 173.953C375.132 172.763 375.799 171.843 376.671 171.875C377.544 171.907 377.956 172.938 377.909 174.08Z" fill="white"/>
<path d="M646.962 152.074L645.375 151.979C645.639 148.601 645.198 145.205 644.08 142.007C642.962 138.808 641.192 135.877 638.881 133.399C636.57 130.922 633.769 128.951 630.657 127.613C627.544 126.275 624.187 125.598 620.799 125.626V124.039C624.404 124.009 627.977 124.728 631.29 126.151C634.602 127.574 637.583 129.67 640.043 132.306C642.503 134.942 644.388 138.06 645.579 141.463C646.77 144.866 647.241 148.48 646.962 152.074Z" fill="#119DA4"/>
<path d="M647.799 158.726L646.879 171.863L648.466 171.974L649.385 158.838L647.799 158.726Z" fill="#119DA4"/>
<path d="M620.799 129.592H511.325C505.346 129.691 499.618 132.009 495.255 136.097C490.891 140.185 488.204 145.75 487.716 151.709L486.717 166.449C486.49 169.285 486.856 172.137 487.792 174.824C488.728 177.511 490.214 179.973 492.154 182.054C494.095 184.134 496.448 185.788 499.063 186.909C501.678 188.03 504.497 188.595 507.342 188.566H616.817L638.045 201.655L641.409 151.709C641.638 148.874 641.274 146.022 640.34 143.335C639.406 140.649 637.921 138.186 635.982 136.105C634.043 134.024 631.691 132.37 629.077 131.249C626.463 130.127 623.644 129.563 620.799 129.592Z" fill="#119DA4"/>
<path d="M615.246 150.71H513.847V154.391H615.246V150.71Z" fill="white"/>
<path d="M614.358 163.767H539.074V167.448H614.358V163.767Z" fill="white"/>
<path d="M456.112 208.446H567.998C570.907 208.414 573.79 208.989 576.464 210.135C579.138 211.28 581.544 212.971 583.528 215.098C585.512 217.226 587.031 219.743 587.988 222.491C588.944 225.238 589.317 228.155 589.083 231.054L588.068 246.127C587.565 252.217 584.817 257.903 580.358 262.081C575.899 266.259 570.046 268.631 563.936 268.736H452.034L428.521 282.142L431.98 231.054C432.479 224.963 435.226 219.275 439.686 215.097C444.146 210.918 450.001 208.547 456.112 208.446Z" fill="white"/>
<path opacity="0.15" d="M456.112 208.446H567.998C570.907 208.414 573.79 208.989 576.464 210.135C579.138 211.28 581.544 212.971 583.528 215.098C585.512 217.226 587.031 219.743 587.988 222.491C588.944 225.238 589.317 228.155 589.083 231.054L588.068 246.127C587.565 252.217 584.817 257.903 580.358 262.081C575.899 266.259 570.046 268.631 563.936 268.736H452.034L428.521 282.142L431.98 231.054C432.479 224.963 435.226 219.275 439.686 215.097C444.146 210.918 450.001 208.547 456.112 208.446Z" fill="#119DA4"/>
<path opacity="0.5" d="M562.318 230.039H458.618V233.815H562.318V230.039Z" fill="#119DA4"/>
<path opacity="0.5" d="M498.696 243.382H457.714V247.158H498.696V243.382Z" fill="#119DA4"/>
<path opacity="0.5" d="M534.917 243.382H508.739V247.158H534.917V243.382Z" fill="#119DA4"/>
</svg>
