<svg width="393" height="349" viewBox="0 0 393 349" fill="none" xmlns="http://www.w3.org/2000/svg">
<path d="M186 265H5C3.587 264.998 2.998 264.003 2 263C1.002 261.997 0 261.417 0 260V5C0.012 3.591 1.003 2.993 2 2C2.997 1.007 3.595 0.002 5 0H186C187.414 0 188 0.997 189 2C190 3.003 191 3.581 191 5V260C191 261.419 190 261.997 189 263C188 264.003 187.414 265 186 265ZM5 0C3.649 0.002 2.954 1.041 2 2C1.046 2.959 0 3.645 0 5V260C0 261.355 1.046 262.041 2 263C2.954 263.959 3.649 264.998 5 265H186C187.352 264.998 188.044 263.959 189 263C189.956 262.041 190.998 261.356 191 260V5C190.998 3.644 189.956 2.959 189 2C188.044 1.041 187.352 0.002 186 0H5Z" fill="#F0F3F7"/>
<path d="M388 265H207C205.586 264.998 205 264.003 204 263C203 261.997 202.002 261.418 202 260V5C202.015 3.59 203.002 2.993 204 2C204.998 1.007 205.594 0.002 207 0H388C389.403 0.005 390.005 1.007 391 2C391.995 2.993 392.988 3.592 393 5V260C393 261.416 391.996 261.997 391 263C390.004 264.003 389.411 264.995 388 265ZM207 0C205.648 0.002 204.956 1.041 204 2C203.044 2.959 202.002 3.644 202 5V260C202.002 261.356 203.044 262.041 204 263C204.956 263.959 205.648 264.998 207 265H388C389.352 264.998 390.044 263.959 391 263C391.956 262.041 392.998 261.356 393 260V5C392.998 3.644 391.956 2.959 391 2C390.044 1.041 389.352 0.002 388 0H207Z" fill="#F0F3F7"/>
<path d="M156 306H235C227.221 276.75 231.917 245.25 249 216H170C152.908 245.25 148.25 276.75 156 306Z" fill="#D9D9D9"/>
<path d="M153 258H233C235.755 243.186 241.314 228.97 249 216H169C161.314 228.971 155.761 243.186 153 258Z" fill="#F0F3F7"/>
<path d="M35 247H355C360.273 247 365 242.28 365 237V40C365 34.72 360.273 30 355 30H35C29.727 30 25 34.72 25 40V237C25 242.28 29.727 247 35 247Z" fill="#F0F3F7"/>
<path d="M39 247H359C364.273 247 369 242.28 369 237V40C369 34.72 364.273 30 359 30H39C33.727 30 29 34.72 29 40V237C29 242.28 33.727 247 39 247Z" fill="#D9D9D9"/>
<path d="M29 216H369V41H29V216Z" fill="#D9D9D9"/>
<path d="M200 239C203.59 239 206 236.59 206 233C206 229.41 203.59 226 200 226C196.41 226 193 229.41 193 233C193 236.59 196.41 239 200 239Z" fill="#F0F3F7"/>
<path d="M170 300H261C262.663 300 263.824 300.875 265 302C266.176 303.125 267 304.409 267 306H164C164 304.412 164.828 303.125 166 302C167.172 300.875 168.34 300.005 170 300Z" fill="#D9D9D9"/>
<path d="M148 300H165C166.674 300.002 167.817 300.875 169 302C170.183 303.125 171 304.41 171 306H142C142.001 305.209 141.679 304.73 142 304C142.321 303.27 143.408 302.558 144 302C144.591 301.443 145.228 300.299 146 300C146.771 299.701 147.166 299.995 148 300Z" fill="#F0F3F7"/>
<path d="M230 16C229.998 14.617 228.989 13.978 228 13C227.011 12.022 226.399 11.002 225 11H60C58.601 11.005 57.989 12.023 57 13C56.011 13.977 55.005 14.618 55 16V33H230V16Z" fill="#F0F3F7"/>
<path d="M188 26C190.209 26 192 24.209 192 22C192 19.791 190.209 18 188 18C185.791 18 184 19.791 184 22C184 24.209 185.791 26 188 26Z" fill="#D9D9D9"/>
<path d="M202 26C204.209 26 206 24.209 206 22C206 19.791 204.209 18 202 18C199.791 18 198 19.791 198 22C198 24.209 199.791 26 202 26Z" fill="#D9D9D9"/>
<path d="M216 26C218.209 26 220 24.209 220 22C220 19.791 218.209 18 216 18C213.791 18 212 19.791 212 22C212 24.209 213.791 26 216 26Z" fill="#D9D9D9"/>
<path d="M60 149H225C226.398 148.998 227.011 147.993 228 147C228.989 146.007 229.995 145.405 230 144V34H55V144C55.007 145.404 56.011 146.008 57 147C57.989 147.992 58.603 148.995 60 149Z" fill="#D9D9D9"/>
<path d="M242 34C241.995 32.621 240.987 31.975 240 31C239.013 30.025 238.397 29.005 237 29H72C70.602 29.002 69.99 30.024 69 31C68.01 31.976 67.005 32.619 67 34V51H242V34Z" fill="#D9D9D9"/>
<path d="M199 44C201.209 44 203 42.209 203 40C203 37.791 201.209 36 199 36C196.791 36 195 37.791 195 40C195 42.209 196.791 44 199 44Z" fill="#F0F3F7"/>
<path d="M214 44C216.209 44 218 42.209 218 40C218 37.791 216.209 36 214 36C211.791 36 210 37.791 210 40C210 42.209 211.791 44 214 44Z" fill="#F0F3F7"/>
<path d="M232 40C232 40.791 231.439 41.342 231 42C230.56 42.658 230.731 43.697 230 44C229.269 44.303 227.776 44.154 227 44C226.224 43.846 225.559 43.559 225 43C224.441 42.441 224.154 41.776 224 41C223.846 40.224 223.697 38.731 224 38C224.303 37.269 225.342 37.44 226 37C226.658 36.56 227.209 36 228 36C229.061 36 230.25 36.25 231 37C231.75 37.75 232 38.939 232 40Z" fill="#F0F3F7"/>
<path d="M72 166H237C238.398 165.995 239.013 164.994 240 164C240.987 163.006 241.998 162.405 242 161V51H67V161C67.002 162.407 68.01 163.005 69 164C69.99 164.995 70.601 165.998 72 166Z" fill="#D9D9D9"/>
<path d="M254 52C253.998 50.617 252.99 49.978 252 49C251.01 48.022 250.4 47.002 249 47H84C82.6 47.002 81.99 48.022 81 49C80.01 49.978 79.002 50.617 79 52V69H254V52Z" fill="#D9D9D9"/>
<path d="M211 62C213.209 62 215 60.209 215 58C215 55.791 213.209 54 211 54C208.791 54 207 55.791 207 58C207 60.209 208.791 62 211 62Z" fill="#D9D9D9"/>
<path d="M225 62C227.209 62 229 60.209 229 58C229 55.791 227.209 54 225 54C222.791 54 221 55.791 221 58C221 60.209 222.791 62 225 62Z" fill="#D9D9D9"/>
<path d="M243 58C243.002 58.792 242.438 59.341 242 60C241.562 60.659 241.731 61.696 241 62C240.269 62.304 238.777 62.153 238 62C237.224 61.847 236.56 61.559 236 61C235.44 60.441 235.155 59.776 235 59C234.845 58.224 234.698 56.731 235 56C235.303 55.269 236.342 55.44 237 55C237.658 54.56 238.209 54 239 54C240.059 54 241.25 54.252 242 55C242.75 55.748 242.998 56.941 243 58Z" fill="#D9D9D9"/>
<path d="M84 184H249C250.399 183.995 251.011 182.994 252 182C252.989 181.006 253.995 180.406 254 179V69H79V179C79.005 180.406 80.011 181.006 81 182C81.989 182.994 82.601 183.995 84 184Z" fill="#F0F3F7"/>
<g opacity="0.5">
<path d="M298 116H238V206H328V116H298ZM269 117H298V146H268L269 117ZM298 176H268V146H298V176ZM239 117H268V146H239V117ZM239 146H268V176H239V146ZM268 205H239V176H268V205ZM298 205H268V176H298V205ZM327 205H298V176H327V205ZM327 176H298V146H327V176ZM298 146V117H327V146H298Z" fill="#F0F3F7"/>
</g>
<path d="M274 102H379V54H274V102Z" fill="#D9D9D9"/>
<path d="M379 72V101H274V65C291.424 65 300.447 81 322 81C343.553 81 350.319 72 379 72Z" fill="#D9D9D9"/>
<path d="M379 87C355.405 87 347.255 76 334 76C320.745 76 314.515 87 298 87C280.794 87 274 78 274 78V102H379V87Z" fill="#F0F3F7"/>
<path d="M198 349C298.24 349 380 343.799 380 338C380 332.201 298.24 328 198 328C97.76 328 17 332.201 17 338C17 343.799 97.76 349 198 349Z" fill="#D9D9D9"/>
<path d="M153 147C149.066 132.888 151.254 117.998 158 105C164.747 92.002 175.215 81.868 189 77L193 88C182.204 91.939 173.296 99.778 168 110C162.704 120.222 161.007 131.879 164 143L153 147Z" fill="#D4AF37"/>
<path d="M181 182C176.593 179.71 172.66 177.369 169 174C162.055 167.592 157.128 159.945 154 151L165 147C167.609 154.278 172.228 160.891 178 166C183.772 171.109 190.495 174.326 198 176C205.505 177.674 213.623 177.176 221 175C228.377 172.824 234.58 169.486 240 164L249 172C240.369 180.822 229.151 186.071 217 188C204.849 189.929 191.91 187.719 181 182Z" fill="#2B4061"/>
<g opacity="0.7">
<path d="M181 182C176.593 179.71 172.66 177.369 169 174C162.055 167.592 157.128 159.945 154 151L165 147C167.609 154.278 172.228 160.891 178 166C183.772 171.109 190.495 174.326 198 176C205.505 177.674 213.623 177.176 221 175C228.377 172.824 234.58 169.486 240 164L249 172C240.369 180.822 229.151 186.071 217 188C204.849 189.929 191.91 187.719 181 182Z" fill="#D9D9D9"/>
</g>
<path d="M243 161C249.286 153.544 253.349 144.733 254 135C254.651 125.267 252.236 115.228 247 107C241.764 98.772 234.089 92.526 225 89C215.911 85.474 206.41 84.453 197 87L193 76C207.375 71.971 222.87 73.891 236 81C249.13 88.109 258.506 99.754 263 114C265.922 123.331 266.959 133.42 265 143C263.041 152.58 258.351 161.568 252 169L243 161Z" fill="#2B4061"/>
<path opacity="0.3" d="M243 161C249.286 153.544 253.349 144.733 254 135C254.651 125.267 252.236 115.228 247 107C241.764 98.772 234.089 92.526 225 89C215.911 85.474 206.41 84.453 197 87L193 76C207.375 71.971 222.87 73.891 236 81C249.13 88.109 258.506 99.754 263 114C265.922 123.331 266.959 133.42 265 143C263.041 152.58 258.351 161.568 252 169L243 161Z" fill="#D4AF37"/>
<path d="M219 117C217.7 115.692 215.698 114.708 214 114C212.302 113.292 210.838 113 209 113C207.162 113 205.699 113.293 204 114C202.301 114.707 200.3 115.692 199 117C197.7 118.308 196.704 120.291 196 122C195.296 123.709 195 125.15 195 127C195 128.85 195.297 130.291 196 132C196.703 133.709 197.7 135.692 199 137L209 147L219 137C221.624 134.359 223 130.735 223 127C223 123.265 221.624 119.641 219 117Z" fill="#2B4061"/>
<g opacity="0.3">
<path d="M219 117C217.7 115.692 215.698 114.708 214 114C212.302 113.292 210.838 113 209 113C207.162 113 205.699 113.293 204 114C202.301 114.707 200.3 115.692 199 117C197.7 118.308 196.704 120.291 196 122C195.296 123.709 195 125.15 195 127C195 128.85 195.297 130.291 196 132C196.703 133.709 197.7 135.692 199 137L209 147L219 137C221.624 134.359 223 130.735 223 127C223 123.265 221.624 119.641 219 117Z" fill="#1D1D1B"/>
</g>
<path d="M209 151H208V155H209V151Z" fill="#2B4061"/>
<path opacity="0.3" d="M209 151H208V155H209V151Z" fill="#1D1D1B"/>
<path d="M209 159H208V163H209V159Z" fill="#2B4061"/>
<path opacity="0.3" d="M209 159H208V163H209V159Z" fill="#1D1D1B"/>
<path d="M170 195H132V333H170V195Z" fill="#2B4061"/>
<path opacity="0.7" d="M170 195H132V333H170V195Z" fill="#D9D9D9"/>
<path d="M188 195H170V333H188V195Z" fill="#2B4061"/>
<path opacity="0.5" d="M188 195H170V333H188V195Z" fill="#D9D9D9"/>
<path d="M241 246H240V267H241V246Z" fill="#2B4061"/>
<path d="M241 233H240V242H241V233Z" fill="#2B4061"/>
<path d="M268 281H230V333H268V281Z" fill="#2B4061"/>
<path opacity="0.5" d="M268 281H230V333H268V281Z" fill="#F0F3F7"/>
<path d="M286 281H268V333H286V281Z" fill="#2B4061"/>
<path opacity="0.6" d="M286 281H268V333H286V281Z" fill="#F0F3F7"/>
<path d="M219 166H181V333H219V166Z" fill="#2B4061"/>
<path opacity="0.7" d="M219 166H181V333H219V166Z" fill="#2B4061"/>
<path d="M237 166H219V333H237V166Z" fill="#2B4061"/>
<path opacity="0.8" d="M237 166H219V333H237V166Z" fill="#1D1D1B"/>
<path d="M293 127C291.696 137.317 290.463 146.767 289 157C288.818 158.495 288.358 160.537 288 162C287.581 163.498 286.648 164.586 286 166C284.764 168.66 283.822 171.702 282 174C280.264 176.208 278.072 178.104 276 180C274.994 180.933 274.081 182.188 273 183C271.919 183.812 270.239 184.188 269 185L266 181C266.773 180.142 267.208 178.933 268 178C268.792 177.067 270.236 175.989 271 175C272.494 173.067 273.77 171.111 275 169C276.185 167.02 277.246 165.182 278 163C278.347 161.991 278.819 161.052 279 160C279.163 158.896 278.952 157.115 279 156C279.345 150.701 279.422 146.233 280 141C280.578 135.767 281.18 130.205 282 125L293 127Z" fill="#E58A7B"/>
<path d="M296 123C298.37 129.328 286 148 286 148L272 140C274.116 134.203 276.698 129.206 280 124C284.944 116.541 293.407 116.055 296 123Z" fill="#2B4061"/>
<g opacity="0.2">
<path d="M296 123C298.37 129.328 286 148 286 148L272 140C274.116 134.203 276.698 129.206 280 124C284.944 116.541 293.407 116.055 296 123Z" fill="#1D1D1B"/>
</g>
<path d="M288 118C288 118 278.973 139.807 287 180H326C326.265 174.133 322.33 145.645 328 118C323.768 117.181 319.303 116.263 315 116C309.577 115.688 304.422 115.688 299 116C295.281 116.374 291.615 117.053 288 118Z" fill="#2B4061"/>
<g opacity="0.2">
<path d="M288 118C288 118 278.973 139.807 287 180H326C326.265 174.133 322.33 145.645 328 118C323.768 117.181 319.303 116.263 315 116C309.577 115.688 304.422 115.688 299 116C295.281 116.374 291.615 117.053 288 118Z" fill="#1D1D1B"/>
</g>
<path d="M292 329H285L283 313H290L292 329Z" fill="#E58A7B"/>
<path d="M343 329H336L330 313H337L343 329Z" fill="#E58A7B"/>
<path d="M334 329H343C342.889 328.912 343.142 328.999 343 329C343.11 329.088 343.971 328.863 344 329L345 336C345.031 336.152 345.038 335.85 345 336C344.961 336.15 345.1 336.881 345 337C344.899 337.119 344.143 336.935 344 337C343.856 337.065 344.158 337.002 344 337C341.155 336.954 339.546 337 336 337C333.819 337 329.044 337 326 337C322.956 337 322.767 334.269 324 334C329.528 332.82 331.207 330.589 333 329C333.32 328.718 333.569 328.999 334 329Z" fill="#2B4061"/>
<path d="M285 329H293C292.889 328.912 293.142 329.001 293 329C293.111 329.088 293.968 328.863 294 329L295 336C295.034 336.151 295.036 335.85 295 336C294.964 336.15 295.099 336.88 295 337C294.901 337.12 294.142 336.935 294 337C293.858 337.065 294.156 337.002 294 337C291.176 336.954 287.492 337 284 337C279.877 337 275.838 337 271 337C268.073 337 267.748 334.269 269 334C274.572 332.801 279.181 332.936 284 330C284.5 329.669 284.398 329.028 285 329Z" fill="#2B4061"/>
<path d="M269 179L263 184L270 189C271.101 188.07 272.618 186.464 273 185C273.382 183.536 273.485 182.427 273 181L269 179Z" fill="#E58A7B"/>
<path d="M283 313L284 321H291L290 313H283Z" fill="#CF6F64"/>
<path d="M337 313H330L333 321H340L337 313Z" fill="#CF6F64"/>
<g opacity="0.2">
<path d="M319 132C320.156 125.62 322.863 126.858 325 130C324.087 138.457 323.927 146.485 324 155C322.546 152.297 317.064 142.688 319 132Z" fill="#1D1D1B"/>
</g>
<path d="M313 98C311.963 103.092 311.283 112.602 315 116C315 116 313.882 121 304 121C293.138 121 298 116 298 116C303.925 114.637 304.027 109.959 303 106L313 98Z" fill="#E58A7B"/>
<path d="M309 102L303 107C303.248 107.954 302.92 109.016 303 110C305.193 109.675 308.767 107.358 309 105C309.126 104.052 309.206 102.933 309 102Z" fill="#CF6F64"/>
<path d="M296 82C292.675 83.483 290.764 93.739 295 96C299.236 98.261 302.3 79.204 296 82Z" fill="#2B4061"/>
<path d="M313 90C312.573 97.074 312.509 101.364 309 105C303.718 110.459 295.652 107.065 294 100C292.505 93.644 293.186 83.814 300 81C301.498 80.372 303.391 79.806 305 80C306.609 80.194 307.688 81.033 309 82C310.312 82.967 311.317 84.505 312 86C312.683 87.495 313.119 88.356 313 90Z" fill="#E58A7B"/>
<path d="M292 78C296.299 71.687 297.066 73.995 297 77C300.796 73.526 307.574 69.957 311 74C311.405 74.417 311.913 74.433 312 75C312.086 75.567 312.263 76.487 312 77C316.413 75.861 320.806 75.387 320 80C319.288 84.08 316.213 85.972 312 86C304.446 87.011 285.907 86.914 292 78Z" fill="#2B4061"/>
<path d="M313 97C309.144 98.515 301.325 84.608 313 83C324.674 81.392 319.179 94.556 313 97Z" fill="#2B4061"/>
<path d="M317 97.9999C315.994 99.5349 314.828 100.59 313 101C310.575 101.52 309.205 99.1579 310 96.9999C310.716 95.0729 312.614 92.5569 315 92.9999C315.519 93.1079 316.596 93.6659 317 93.9999C317.403 94.3339 317.809 94.5199 318 94.9999C318.19 95.4799 318.068 95.4899 318 95.9999C317.931 96.5099 317.311 97.5829 317 97.9999Z" fill="#E58A7B"/>
<path d="M320 85C319.505 84.523 318.699 84.215 318 84C317.301 83.785 316.733 83.901 316 84C316 84 319.483 81.393 320 85Z" fill="#2B4061"/>
<path d="M287 180C287 180 267.272 230.414 268 252C268.793 274.446 282 320 282 320H294C294 320 289.468 276.035 290 254C290.578 229.964 312 180 312 180H287Z" fill="#D4AF37"/>
<g opacity="0.2">
<path d="M303 197L304 200C299.784 210.927 296.095 221.7 293 233C292.671 220.108 295.503 205.894 303 197Z" fill="#1D1D1B"/>
</g>
<path d="M301 180C301 180 296.633 231.721 301 252C305.783 274.187 329 320 329 320H342C342 320 324.735 276 322 254C319.042 230.157 325 180 325 180H301Z" fill="#D4AF37"/>
<path d="M302 92C302 92.552 301.275 93 301 93C300.724 93 301 92.552 301 92C301 91.448 300.724 91 301 91C301.275 91 302 91.403 302 92Z" fill="#2B4061"/>
<path d="M296 92C296 92.552 296.269 93 296 93C295.731 93 295 92.552 295 92C295 91.448 295.724 91 296 91C296.276 91 296 91.403 296 92Z" fill="#2B4061"/>
<path d="M299 93C298.25 94.903 297.241 96.369 296 98C296.428 98.305 296.482 98.903 297 99C297.518 99.097 298.489 99.129 299 99V93Z" fill="#DF5753"/>
<path d="M300 99C299.957 99 300.03 99.029 300 99C299.969 98.971 300 99.041 300 99C300 98.959 299.969 99.029 300 99C300.03 98.971 299.957 99 300 99C300.683 99.014 301.384 98.282 302 98C302.616 97.718 303.584 97.517 304 97C303.982 97.011 304.012 96.983 304 97C303.979 97.004 304.017 96.989 304 97C303.979 96.996 304.021 96.996 304 97C303.982 96.989 304.021 97.004 304 97C303.991 96.962 304.033 97.023 304 97C304.008 97.038 304.021 96.967 304 97C303.561 97.566 302.664 98.692 302 99C301.335 99.308 300.738 99.021 300 99Z" fill="#2B4061"/>
<path d="M305 90C304.951 89.999 305.043 90.023 305 90C304.956 89.977 304.03 90.041 304 90C303.764 89.643 304.361 89.203 304 89C303.639 88.797 302.407 89.004 302 89C301.957 89.004 302.04 89.015 302 89C301.959 88.985 302.032 89.031 302 89C301.967 88.969 302.018 89.042 302 89C301.981 88.958 302.001 88.046 302 88C301.944 88.069 301.995 87.909 302 88C301.915 88.007 302.055 87.931 302 88C302.514 87.997 303.541 87.75 304 88C304.458 88.25 304.698 88.552 305 89C305.051 89.075 305.011 89.908 305 90C305.068 89.942 304.988 90.092 305 90C305.07 89.997 304.94 90.041 305 90Z" fill="#2B4061"/>
<path d="M293 90C292.946 90.008 293.053 90.008 293 90C292.957 89.984 293.031 90.028 293 90C293.015 90.036 292.968 89.972 293 90C292.996 90.038 292.985 89.964 293 90C293.004 89.962 292.978 90.034 293 90C293.238 89.586 293.549 89.28 294 89C294.451 88.72 295.438 88.082 296 88C295.932 87.953 296.089 87.999 296 88C295.989 87.929 296.067 88.047 296 88C296.011 88.071 296.051 87.941 296 88C295.949 88.059 296.087 88.983 296 89C295.56 89.076 295.35 88.774 295 89C294.65 89.226 294.185 89.672 294 90C293.963 90.044 294.06 89.979 294 90C293.939 90.021 293.065 90.008 293 90Z" fill="#2B4061"/>
<path d="M330 124C330.606 125.309 331.515 126.737 332 128C332.485 129.263 332.506 129.719 333 131C333.932 133.488 334.292 136.428 335 139C335.708 141.572 336.515 144.325 337 147L338 149V151C338.093 151.683 337.944 152.299 338 153V154V155C338 155.327 338 155.691 338 156C337.815 157.842 336.85 159.357 336 161C335.338 162.321 334.833 163.78 334 165C332.456 167.231 330.826 168.995 329 171C325.487 174.882 322.074 178.716 318 182L314 178C317.048 174.09 320.232 170.013 323 166C324.348 164.047 325.864 162.084 327 160C327.52 159.064 327.62 158.001 328 157C328.277 156.361 327.969 155.696 328 155V154C327.916 153.429 328.13 153.571 328 153V151L327 149C326.431 146.699 325.746 144.301 325 142C324.254 139.699 323.848 137.292 323 135C322.152 132.708 320.867 131.114 320 129L330 124Z" fill="#E58A7B"/>
<path d="M332 330C331.48 330.04 330.429 330.295 330 330C329.855 329.878 330.065 329.178 330 329C329.934 328.822 329.969 329.187 330 329C329.999 328.896 329.946 328.089 330 328C329.908 328.048 330.053 327.911 330 328C330.859 327.564 333.717 328.828 334 329C333.985 328.968 334.029 329.019 334 329C334.014 329.032 334.005 329.965 334 330C333.993 330.036 334.025 329.973 334 330C333.975 330.027 334.035 329.991 334 330C333.346 330.18 332.677 329.965 332 330ZM331 328C330.919 327.994 330.071 327.961 330 328C329.949 328 330.01 328.858 330 329C329.956 328.886 329.987 329.122 330 329C330.044 329.114 330.909 328.918 331 329C331.854 329.385 332.112 329.3 333 329C332.206 328.483 331.929 328.179 331 328Z" fill="#2B4061"/>
<path d="M334 330C333.345 329.622 331.867 327.748 332 327C331.914 327.075 332.023 326.884 332 327C331.889 327.002 332.086 326.925 332 327C332.112 326.986 332.892 326.965 333 327C332.913 326.922 333.108 327.035 333 327C333.73 327.633 333.992 329.912 334 330C334.011 329.975 334.001 330.027 334 330C334.021 329.984 333.988 330.025 334 330C334.028 330.006 333.974 330.012 334 330ZM333 327C332.809 327 332.008 326.956 332 327C331.925 327.44 333.353 328.481 334 329C333.955 328.243 333.436 327.602 333 327C333.124 327 332.905 326.914 333 327Z" fill="#2B4061"/>
<path d="M282 330C281.451 330.06 280.457 330.374 280 330C279.895 329.89 280.05 329.157 280 329C279.95 328.843 279.984 329.167 280 329C280.005 328.899 279.957 328.086 280 328C279.929 328.052 280.043 327.914 280 328C280.79 327.473 283.737 328.783 284 329C283.985 328.965 284.029 329.017 284 329C284.015 329.035 284.005 329.961 284 330C283.995 330.039 284.023 329.972 284 330C283.977 330.028 284.032 329.994 284 330C283.334 330.166 282.679 329.98 282 330ZM281 328C280.903 327.992 280.086 327.945 280 328C279.97 328.017 280.017 328.965 280 329C279.983 329.035 279.997 328.96 280 329C279.969 328.897 279.987 329.108 280 329C279.933 328.927 280.031 329.103 280 329C280.399 329.434 281.59 329.289 283 329C282.165 328.459 281.936 328.17 281 328Z" fill="#2B4061"/>
<path d="M285 330C284.973 330.008 285.027 330.008 285 330C284.042 329.64 281.852 327.791 282 327C282 326.824 282.473 327.044 283 327C282.819 326.953 283.188 326.984 283 327C283.181 327.047 283.855 326.898 284 327C285.053 327.694 285 329.93 285 330C285.013 329.974 285.005 330.028 285 330C285.027 329.983 284.987 330.026 285 330C285.039 330.007 284.963 330.012 285 330ZM283 327C282.663 327 282.01 326.965 282 327C281.916 327.448 284.021 329.508 285 330C284.911 329.243 284.596 327.575 284 327C283.819 326.868 283.24 326.998 283 327Z" fill="#2B4061"/>
<path d="M315 177L308 179L314 186C314 186 319.164 183.168 318 180L315 177Z" fill="#E58A7B"/>
<path d="M305 184L310 189L314 186L308 179L305 184Z" fill="#E58A7B"/>
<path d="M327 321H344V316H325L327 321Z" fill="#2B4061"/>
<g opacity="0.4">
<path d="M327 321H344V316H325L327 321Z" fill="#1D1D1B"/>
</g>
<path d="M279 321H296V316H277L279 321Z" fill="#2B4061"/>
<g opacity="0.4">
<path d="M279 321H296V316H277L279 321Z" fill="#1D1D1B"/>
</g>
<path d="M328 119C334.34 121.417 341 143 341 143L324 150C324 150 318.719 138.551 317 130C315.234 121.03 320.814 116.267 328 119Z" fill="#2B4061"/>
<g opacity="0.2">
<path d="M328 119C334.34 121.417 341 143 341 143L324 150C324 150 318.719 138.551 317 130C315.234 121.03 320.814 116.267 328 119Z" fill="#1D1D1B"/>
</g>
<path d="M260 154C258.19 160.313 258.852 166.794 261 173C262.965 178.776 266.221 184.207 271 188C277.366 193.041 285.908 195.664 294 195C302.093 194.336 309.54 191.011 315 185C320.46 178.989 323.114 171.12 323 163C322.886 154.88 319.627 146.855 314 141C310.135 136.975 305.363 133.542 300 132C295.04 130.565 290.062 130.986 285 132C279.938 133.014 275.024 134.765 271 138C270.267 138.591 269.664 139.333 269 140C264.947 143.899 261.551 148.594 260 154Z" fill="#2B4061"/>
<path opacity="0.6" d="M260 154C258.19 160.313 258.852 166.794 261 173C262.965 178.776 266.221 184.207 271 188C277.366 193.041 285.908 195.664 294 195C302.093 194.336 309.54 191.011 315 185C320.46 178.989 323.114 171.12 323 163C322.886 154.88 319.627 146.855 314 141C310.135 136.975 305.363 133.542 300 132C295.04 130.565 290.062 130.986 285 132C279.938 133.014 275.024 134.765 271 138C270.267 138.591 269.664 139.333 269 140C264.947 143.899 261.551 148.594 260 154Z" fill="#1D1D1B"/>
<path d="M310 140L287 162L278 193C284.8 194.936 292.417 194.57 299 192C305.583 189.43 310.355 185.013 314 179C317.645 172.987 319.8 165.97 319 159C318.2 152.03 314.915 145.046 310 140Z" fill="#2B4061"/>
<g opacity="0.9">
<path d="M310 140L287 162L278 193C284.8 194.936 292.417 194.57 299 192C305.583 189.43 310.355 185.013 314 179C317.645 172.987 319.8 165.97 319 159C318.2 152.03 314.915 145.046 310 140Z" fill="#D9D9D9"/>
</g>
<g opacity="0.7">
<path d="M286 162L309 140C305.155 135.958 300.322 132.549 295 131C289.678 129.451 284.372 129.64 279 131C273.628 132.36 267.982 135.096 264 139C260.018 142.904 257.523 147.599 256 153L286 162Z" fill="#2B4061"/>
<g opacity="0.44">
<path d="M286 162L309 140C305.155 135.958 300.322 132.549 295 131C289.678 129.451 284.372 129.64 279 131C273.628 132.36 267.982 135.096 264 139C260.018 142.904 257.523 147.599 256 153L286 162Z" fill="#D9D9D9"/>
</g>
</g>
<path d="M262 188L269 190L270 188L262 184V188Z" fill="#E58A7B"/>
<path d="M287 162L256 153C253.663 161.039 254.884 169.687 259 177C263.115 184.313 269.841 189.693 278 192L287 162Z" fill="#2B4061"/>
<path opacity="0.6" d="M287 162L256 153C253.663 161.039 254.884 169.687 259 177C263.115 184.313 269.841 189.693 278 192L287 162Z" fill="#D4AF37"/>
<path d="M113 119C111.366 120.678 109.615 122.144 108 124C106.384 125.856 104.522 128.059 103 130C101.478 131.941 100.382 133.984 99.0002 136L98.0002 137L97.0002 139C96.6822 139.516 96.3172 139.475 96.0002 140L95.0002 142C94.6852 142.818 95.0372 143.124 95.0002 144C94.9252 145.13 94.9252 146.87 95.0002 148C95.1752 150.431 95.5532 152.604 96.0002 155C96.4202 157.456 96.3932 159.553 97.0002 162C97.6072 164.447 98.3372 167.581 99.0002 170L95.0002 171C92.8222 166.224 91.4462 161.048 90.0002 156C89.2552 153.407 88.3932 150.67 88.0002 148C87.8032 146.574 88.0022 145.439 88.0002 144C87.9742 142.303 88.4192 140.594 89.0002 139C89.2242 138.456 88.8512 138.319 89.0002 138L90.0002 137C90.2892 136.381 90.6642 135.591 91.0002 135L92.0002 133L93.0002 132C94.3732 129.707 95.3932 127.135 97.0002 125C98.5872 122.872 100.263 120.997 102 119C103.737 117.003 105.992 114.922 108 113L113 119Z" fill="#E58A7B"/>
<path d="M98 168L105 170L101 174C101 174 95.678 173.045 95 170L98 168Z" fill="#E58A7B"/>
<path d="M108 175L107 179L100 174L104 170L108 175Z" fill="#E58A7B"/>
<path d="M51 291L56 297L71 287L66 281L51 291Z" fill="#E58A7B"/>
<path d="M120 312L119 321L111 320L112 311L120 312Z" fill="#CF6F64"/>
<path d="M65 281L70 287L64 291L59 285L65 281Z" fill="#CF6F64"/>
<path d="M133 157C133 157 118.247 206.454 111 235C103.359 265.087 67 290 67 290L59 282C59 282 83.556 262.07 91 234C106.038 176.991 99.015 164.594 111 153L133 157Z" fill="#2B4061"/>
<path opacity="0.6" d="M133 157C133 157 118.247 206.454 111 235C103.359 265.087 67 290 67 290L59 282C59 282 83.556 262.07 91 234C106.038 176.991 99.015 164.594 111 153L133 157Z" fill="#D4AF37"/>
<path d="M58.0003 296L54.0003 288C53.9283 287.869 53.1413 288.05 53.0003 288C52.8603 287.95 53.1393 287.945 53.0003 288L47.0003 291C46.8443 291.074 46.1123 290.869 46.0003 291C45.8883 291.131 46.0503 290.834 46.0003 291C45.9503 291.166 45.9793 291.829 46.0003 292C45.9113 291.852 46.0223 292.172 46.0003 292C47.5833 294.598 49.0593 295.685 51.0003 299C52.1973 301.04 53.3613 304.185 55.0003 307C56.6393 309.815 59.4433 308.313 59.0003 307C57.0223 301.097 57.6143 299.626 58.0003 297C58.0703 296.54 58.2353 296.402 58.0003 296Z" fill="#2B4061"/>
<path d="M68 292L58 282L61 279L73 289L68 292Z" fill="#D9D9D9"/>
<g opacity="0.3">
<path d="M126 168C116.446 175.451 115.779 204.147 116 217C120.864 199.033 126.644 178.559 130 167C129.08 166.199 127.756 166.622 126 168Z" fill="#1D1D1B"/>
</g>
<path d="M60.0002 300C59.9102 299.998 60.0862 300.027 60.0002 300C59.0862 299.739 58.2832 297.912 58.0002 297C57.9892 296.968 57.9902 297.032 58.0002 297C57.9732 297.022 58.0102 296.968 58.0002 297C57.9652 297 58.0282 296.981 58.0002 297C57.9722 296.981 58.0342 297 58.0002 297C58.2742 297.13 60.9362 298.097 61.0002 299C61.0102 299.098 61.0422 299.91 61.0002 300C60.9582 300.09 61.0822 299.941 61.0002 300C60.8152 300.146 60.2412 299.995 60.0002 300ZM58.0002 298C58.4482 299.207 59.5152 299.852 60.0002 300C59.8932 300.027 60.1082 300.026 60.0002 300C60.1072 299.973 60.9202 299.074 61.0002 299C60.9802 299.039 61.0392 298.978 61.0002 299C61.0062 299.042 61.0192 298.961 61.0002 299C60.9452 298.548 58.9692 298.504 58.0002 298Z" fill="#2B4061"/>
<path d="M59.9995 298C59.1355 297.997 57.7785 297.412 56.9995 297C56.9725 296.978 57.0145 297.033 56.9995 297C56.9845 296.967 56.9995 297.037 56.9995 297C56.9845 297.033 56.9995 296.963 56.9995 297C56.9725 297.022 57.0145 296.967 56.9995 297C57.0895 297 58.8815 295.591 59.9995 296C60.1445 296.046 60.8875 295.889 60.9995 296C61.1115 296.111 60.9415 296.846 60.9995 297C61.0235 296.831 61.0765 297.148 60.9995 297C60.9755 297.169 61.1135 297.884 60.9995 298C60.6465 298.262 60.4225 298.04 59.9995 298ZM57.9995 297C58.9175 297.409 60.5805 297.409 60.9995 297C61.0695 296.934 61.1295 297.254 60.9995 297C60.9625 296.9 60.0715 297.073 59.9995 297C59.9265 296.927 60.0935 296.031 59.9995 296C59.1215 295.945 58.7535 296.498 57.9995 297Z" fill="#2B4061"/>
<path d="M110 328L118 329L120 312L112 311L110 328Z" fill="#E58A7B"/>
<path d="M142 159C142 159 143.278 219.383 139 242C134.522 265.525 121 319 121 319L110 318C110 318 117.031 263.366 120 240C123.254 214.52 119 155 119 155L142 159Z" fill="#2B4061"/>
<path opacity="0.6" d="M142 159C142 159 143.278 219.383 139 242C134.522 265.525 121 319 121 319L110 318C110 318 117.031 263.366 120 240C123.254 214.52 119 155 119 155L142 159Z" fill="#D4AF37"/>
<path d="M149 88C148.865 88.558 149.486 88.923 150 89C150.514 89.077 150.817 88.532 151 88C151.184 87.468 150.514 87.069 150 87C149.486 86.931 149.135 87.451 149 88Z" fill="#2B4061"/>
<path d="M150 87H152C152 87 150.773 87.852 150 87Z" fill="#2B4061"/>
<path d="M150 88C150.282 89.646 150.373 91.507 151 93C150.686 93.178 150.345 93 150 93C149.655 93 149.314 93.178 149 93L150 88Z" fill="#DF5753"/>
<path d="M151 86C150.93 86 150.059 86.043 150 86C149.942 85.957 150.028 86.072 150 86C149.822 85.524 150.349 85.341 150 85C149.652 84.66 148.448 84.135 148 84C147.954 83.991 148.04 84.028 148 84C147.96 83.972 148.027 84.043 148 84C147.973 83.957 148.011 83.051 148 83C147.99 82.949 147.992 83.052 148 83C147.921 83.061 148.019 82.895 148 83C147.905 82.982 148.08 82.939 148 83C148.565 83.155 149.559 83.578 150 84C150.441 84.422 150.778 84.402 151 85C151.039 85.098 151.034 85.9 151 86C151.087 85.954 150.967 86.1 151 86Z" fill="#2B4061"/>
<path d="M130 93C130.143 97.611 129.668 105.638 126 108C126 108 126.566 113.353 135 115C144.274 116.769 140 111 140 111C135.129 108.845 135.539 105.284 137 102L130 93Z" fill="#E58A7B"/>
<path d="M154 117C155.868 118.423 157.974 119.623 160 121C162.026 122.377 163.89 123.755 166 125C168.11 126.245 169.852 127.848 172 129C174.14 130.109 176.754 131.125 179 132C178.953 131.934 179.196 132.075 179 132C179.121 132.017 179.879 132.017 180 132C180.373 132.002 180.635 132.077 181 132C181.991 131.757 183.086 131.454 184 131C186.115 129.924 188.094 128.416 190 127C191.998 125.586 194.086 124.611 196 123C197.914 121.389 199.17 119.667 201 118L204 120C200.798 124.185 196.905 128.466 193 132C190.952 133.836 189.356 135.584 187 137C185.674 137.781 183.466 138.536 182 139C181.135 139.26 180.902 138.961 180 139C179.482 139.028 178.513 139.072 178 139C177.723 138.967 177.27 139.067 177 139C176.757 138.934 177.103 139.047 177 139C171.914 137.317 166.623 134.712 162 132C159.722 130.67 157.185 129.48 155 128C152.815 126.52 151.138 124.751 149 123L154 117Z" fill="#E58A7B"/>
<path d="M201 119L203 113L208 118C208 118 206.225 121.991 203 122L201 119Z" fill="#E58A7B"/>
<path d="M208 111L212 112L208 117L203 113L208 111Z" fill="#E58A7B"/>
<path d="M119 328H110C109.848 327.998 109.116 327.9 109 328C108.884 328.1 109.023 328.847 109 329L108 336C107.95 335.83 107.977 336.176 108 336C108.051 336.17 107.885 336.867 108 337C108.115 337.133 108.841 336.928 109 337C108.826 337.002 109.159 337.072 109 337C112.038 336.951 114.169 337 118 337C120.35 337 124.714 337 128 337C131.287 337 131.347 333.302 130 333C123.962 331.674 122.006 329.755 120 328C119.634 327.678 119.483 327.992 119 328Z" fill="#2B4061"/>
<path d="M130 82C129.223 89.469 127.806 92.491 131 97C135.796 103.769 145.902 103.011 149 96C151.753 89.698 152.954 79.332 146 75C144.521 74.023 142.782 73.136 141 73C139.218 72.864 136.617 73.259 135 74C133.382 74.741 132.028 75.577 131 77C129.972 78.423 130.169 80.268 130 82Z" fill="#E58A7B"/>
<path d="M131 98C127.382 96.565 123.867 90.859 124 82C124.134 73.141 130.881 68.269 143 72C155.12 75.731 142.825 102.703 131 98Z" fill="#2B4061"/>
<path d="M140 72C143.423 70.644 151 72.795 151 80L144 86L140 72Z" fill="#2B4061"/>
<path d="M139 72.0001C143.795 71.7551 145.656 71.9271 150 73.0001C147.142 69.9761 141.791 70.8181 139 72.0001Z" fill="#2B4061"/>
<path d="M143 87C142.857 88.435 143.333 89.737 144 91C144.926 92.777 146.482 92.439 147 91C147.472 89.706 147.296 87.333 146 86C144.704 84.667 143.222 85.406 143 87Z" fill="#E58A7B"/>
<path d="M124 75C126.759 76.637 136.974 75.485 139 72C141.026 68.515 133.344 62.788 127 63C120.656 63.211 117.856 71.34 124 75Z" fill="#2B4061"/>
<path d="M122 320L107 318V314L124 315L122 320Z" fill="#D9D9D9"/>
<path d="M122 330C121.151 329.985 119.831 330.172 119 330C118.961 329.994 119.027 330.028 119 330C118.973 329.972 119.004 330.038 119 330C118.995 329.962 118.982 329.034 119 329C118.966 329.019 119.018 328.966 119 329C119.366 328.816 123.029 327.459 124 328C123.946 327.913 124.091 328.048 124 328C124.054 328.087 123.998 328.899 124 329C124.019 329.168 124.064 328.843 124 329C123.936 329.157 124.132 329.891 124 330C123.427 330.378 122.688 330.065 122 330ZM120 329C121.773 329.29 122.495 329.425 123 329C123.085 328.926 123.959 329.104 124 329C124.012 329.111 124.041 328.896 124 329C124 328.959 124.021 329.036 124 329C123.979 328.964 123.036 328.021 123 328C122.475 327.71 121.337 328.381 120 329Z" fill="#2B4061"/>
<path d="M119 329C118.961 329.007 119.038 329.007 119 329C118.975 328.982 119.012 329.026 119 329C118.996 329.028 118.988 328.974 119 329C119 328.885 119.237 326 121 326C121.506 326.041 121.961 325.827 122 326C122.146 326.756 119.954 328.638 119 329ZM121 326C119.86 326 119.146 328.318 119 329C119.974 328.499 122.088 326.444 122 326C122 326 121.36 326.033 121 326Z" fill="#2B4061"/>
<path d="M114 107C108.573 107.241 103 116 103 116L110 130C110 130 119.875 122.656 120 115C120.106 110.026 119.33 106.768 114 107Z" fill="#2B4061"/>
<g opacity="0.8">
<path d="M114 107C108.573 107.241 103 116 103 116L110 130C110 130 119.875 122.656 120 115C120.106 110.026 119.33 106.768 114 107Z" fill="#D9D9D9"/>
</g>
<path d="M111 153L142 159C156.467 116.765 153 115 153 115C150.75 113.796 148.38 112.928 146 112H145C143.05 111.3 142.628 110.756 140 110C135.489 108.945 131.199 108.747 126 108H125C124.058 107.888 123.895 107.084 123 107C122.397 106.935 121.575 107.047 121 107H119C115.647 106.832 113 107 113 107C114.752 133.355 113.552 140.817 111 153Z" fill="#2B4061"/>
<g opacity="0.6">
<path d="M111 153L142 159C156.467 116.765 153 115 153 115C150.75 113.796 148.38 112.928 146 112H145C143.05 111.3 142.628 110.756 140 110C135.489 108.945 131.199 108.747 126 108H125C124.058 107.888 123.895 107.084 123 107C122.397 106.935 121.575 107.047 121 107H119C115.647 106.832 113 107 113 107C114.752 133.355 113.552 140.817 111 153Z" fill="#D9D9D9"/>
</g>
<g opacity="0.2">
<path d="M145 126C146.215 128.466 148.069 131.738 150 134C150.556 131.922 150.604 129.68 151 128L145 126Z" fill="#2B4061"/>
</g>
<path d="M120 132C127.566 125.983 129.054 120.891 128 116C126.946 111.109 126.132 102.854 127 100C127.867 97.146 130.616 91.06 130 86C129.384 80.94 127.619 74.042 129 71C130.381 67.958 135.554 65.318 132 61C130.274 58.907 122.912 59.161 121 65C119.087 70.839 111.088 73.418 108 74C104.912 74.582 98.9417 78.311 97.9997 84C97.0577 89.689 93.2147 91.081 87.9997 94C82.7847 96.919 76.0147 108.843 78.9997 119C83.0297 132.903 108.73 140.993 120 132Z" fill="#2B4061"/>
<path d="M143 113C145.389 111.088 155.853 117.371 159 120L157 134C157 134 142.005 128.198 141 124C139.92 119.63 141.104 114.463 143 113Z" fill="#2B4061"/>
<g opacity="0.6">
<path d="M143 113C145.389 111.088 155.853 117.371 159 120L157 134C157 134 142.005 128.198 141 124C139.92 119.63 141.104 114.463 143 113Z" fill="#D9D9D9"/>
</g>
<path d="M111 151L109 154C108.65 153.928 108.858 154.181 109 154L142 160C141.953 160.199 142.274 160.054 142 160L143 157C143.047 156.828 143.302 157.054 143 157L111 151C111.095 150.978 110.907 150.973 111 151C111.07 150.935 110.905 151.022 111 151Z" fill="#2B4061"/>
<path d="M114 156H113C112.866 156 112.976 156.103 113 156L114 152C113.858 151.972 114 151.897 114 152H115C115.024 151.897 115.134 152 115 152L114 156C114.142 156.028 113.976 156.103 114 156Z" fill="#2B4061"/>
<path d="M135 160H134C133.866 160 133.977 160.103 134 160L135 156C134.858 155.972 135 155.906 135 156H136C136.024 155.897 136.142 156 136 156L135 160C135.134 160.038 134.969 160.103 135 160Z" fill="#2B4061"/>
<g opacity="0.6">
<path d="M114 156H113C112.866 156 112.976 156.103 113 156L114 152C113.858 151.972 114 151.897 114 152H115C115.024 151.897 115.134 152 115 152L114 156C114.142 156.028 113.976 156.103 114 156Z" fill="#1D1D1B"/>
</g>
<g opacity="0.6">
<path d="M135 160H134C133.866 160 133.977 160.103 134 160L135 156C134.858 155.972 135 155.906 135 156H136C136.024 155.897 136.142 156 136 156L135 160C135.134 160.038 134.969 160.103 135 160Z" fill="#1D1D1B"/>
</g>
</svg>
