<?xml version="1.0" encoding="UTF-8"?>
<svg width="700pt" height="700pt" version="1.1" viewBox="0 0 700 700" xmlns="http://www.w3.org/2000/svg" xmlns:xlink="http://www.w3.org/1999/xlink">
 <defs>
  <symbol id="t" overflow="visible">
   <path d="m19.734-1.1875c-1.0117 0.53125-2.0703 0.93359-3.1719 1.2031-1.1055 0.26953-2.2578 0.40625-3.4531 0.40625-3.5859 0-6.4219-1-8.5156-3-2.0859-2-3.125-4.7109-3.125-8.1406 0-3.4375 1.0391-6.1562 3.125-8.1562 2.0938-2 4.9297-3 8.5156-3 1.1953 0 2.3477 0.13672 3.4531 0.40625 1.1016 0.27344 2.1602 0.66797 3.1719 1.1875v4.4531c-1.0234-0.69531-2.0312-1.207-3.0312-1.5312-1-0.33203-2.0547-0.5-3.1562-0.5-1.9688 0-3.5234 0.63672-4.6562 1.9062-1.1367 1.2617-1.7031 3.0078-1.7031 5.2344 0 2.2188 0.56641 3.9648 1.7031 5.2344 1.1328 1.2617 2.6875 1.8906 4.6562 1.8906 1.1016 0 2.1562-0.16016 3.1562-0.48438 1-0.33203 2.0078-0.84766 3.0312-1.5469z"/>
  </symbol>
  <symbol id="d" overflow="visible">
   <path d="m14.453-11.734c-0.46094-0.20703-0.91406-0.35938-1.3594-0.45312-0.4375-0.10156-0.88672-0.15625-1.3438-0.15625-1.3242 0-2.3438 0.42969-3.0625 1.2812-0.71094 0.84375-1.0625 2.0586-1.0625 3.6406v7.4219h-5.1562v-16.109h5.1562v2.6406c0.66406-1.0508 1.4258-1.8164 2.2812-2.2969 0.85156-0.48828 1.8828-0.73438 3.0938-0.73438 0.16406 0 0.34766 0.007812 0.54688 0.015625 0.20703 0.011719 0.50391 0.042969 0.89062 0.09375z"/>
  </symbol>
  <symbol id="c" overflow="visible">
   <path d="m18.562-8.0938v1.4531h-12.047c0.125 1.2109 0.5625 2.1211 1.3125 2.7344 0.75 0.60547 1.7969 0.90625 3.1406 0.90625 1.082 0 2.1914-0.16016 3.3281-0.48438 1.1328-0.32031 2.3008-0.8125 3.5-1.4688v3.9688c-1.2188 0.46875-2.4375 0.82031-3.6562 1.0469-1.2188 0.23828-2.4375 0.35938-3.6562 0.35938-2.918 0-5.1836-0.73828-6.7969-2.2188-1.6172-1.4883-2.4219-3.5703-2.4219-6.25 0-2.625 0.78906-4.6875 2.375-6.1875 1.5938-1.5078 3.7812-2.2656 6.5625-2.2656 2.5312 0 4.5547 0.76562 6.0781 2.2969 1.5195 1.5234 2.2812 3.5586 2.2812 6.1094zm-5.2969-1.7188c0-0.97656-0.28906-1.7656-0.85938-2.3594-0.57422-0.60156-1.3203-0.90625-2.2344-0.90625-1 0-1.8125 0.28125-2.4375 0.84375-0.61719 0.5625-1 1.3711-1.1562 2.4219z"/>
  </symbol>
  <symbol id="a" overflow="visible">
   <path d="m9.7031-7.25c-1.0742 0-1.8867 0.18359-2.4375 0.54688-0.54297 0.36719-0.8125 0.90234-0.8125 1.6094 0 0.65625 0.21875 1.1719 0.65625 1.5469 0.4375 0.36719 1.0469 0.54688 1.8281 0.54688 0.96875 0 1.7812-0.34766 2.4375-1.0469 0.66406-0.69531 1-1.5664 1-2.6094v-0.59375zm7.8594-1.9375v9.1875h-5.1875v-2.3906c-0.6875 0.98047-1.4648 1.6953-2.3281 2.1406-0.86719 0.44531-1.918 0.67188-3.1562 0.67188-1.668 0-3.0234-0.48438-4.0625-1.4531-1.043-0.97656-1.5625-2.2422-1.5625-3.7969 0-1.8945 0.64844-3.2812 1.9531-4.1562 1.3008-0.88281 3.3438-1.3281 6.125-1.3281h3.0312v-0.40625c0-0.8125-0.32422-1.4062-0.96875-1.7812-0.63672-0.38281-1.6367-0.57812-3-0.57812-1.1055 0-2.1328 0.10938-3.0781 0.32812-0.94922 0.21875-1.8359 0.55469-2.6562 1v-3.9375c1.1016-0.26953 2.2109-0.47266 3.3281-0.60938 1.1133-0.13281 2.2266-0.20312 3.3438-0.20312 2.9062 0 5 0.57422 6.2812 1.7188 1.2891 1.1484 1.9375 3.0117 1.9375 5.5938z"/>
  </symbol>
  <symbol id="b" overflow="visible">
   <path d="m8.0938-20.688v4.5781h5.3125v3.6719h-5.3125v6.8438c0 0.75 0.14844 1.2578 0.45312 1.5156 0.30078 0.26172 0.89062 0.39062 1.7656 0.39062h2.6562v3.6875h-4.4219c-2.0312 0-3.4766-0.42188-4.3281-1.2656-0.84375-0.85156-1.2656-2.2969-1.2656-4.3281v-6.8438h-2.5625v-3.6719h2.5625v-4.5781z"/>
  </symbol>
  <symbol id="l" overflow="visible">
   <path d="m13.438-13.75v-8.6406h5.1875v22.391h-5.1875v-2.3281c-0.71094 0.94922-1.4922 1.6484-2.3438 2.0938-0.85547 0.4375-1.8438 0.65625-2.9688 0.65625-1.9805 0-3.6094-0.78516-4.8906-2.3594-1.2734-1.582-1.9062-3.6172-1.9062-6.1094 0-2.4766 0.63281-4.5039 1.9062-6.0781 1.2812-1.582 2.9102-2.375 4.8906-2.375 1.1133 0 2.0977 0.22656 2.9531 0.67188 0.86328 0.4375 1.6484 1.1328 2.3594 2.0781zm-3.3906 10.422c1.1016 0 1.9414-0.39844 2.5156-1.2031 0.58203-0.80078 0.875-1.9727 0.875-3.5156 0-1.5312-0.29297-2.6953-0.875-3.5-0.57422-0.8125-1.4141-1.2188-2.5156-1.2188-1.0938 0-1.9336 0.40625-2.5156 1.2188-0.58594 0.80469-0.875 1.9688-0.875 3.5 0 1.543 0.28906 2.7148 0.875 3.5156 0.58203 0.80469 1.4219 1.2031 2.5156 1.2031z"/>
  </symbol>
  <symbol id="k" overflow="visible">
   <path d="m11.047-3.3281c1.1016 0 1.9453-0.39844 2.5312-1.2031 0.58203-0.80078 0.875-1.9727 0.875-3.5156 0-1.5312-0.29297-2.6953-0.875-3.5-0.58594-0.8125-1.4297-1.2188-2.5312-1.2188-1.1055 0-1.9531 0.40625-2.5469 1.2188-0.58594 0.8125-0.875 1.9805-0.875 3.5 0 1.5312 0.28906 2.7031 0.875 3.5156 0.59375 0.80469 1.4414 1.2031 2.5469 1.2031zm-3.4219-10.422c0.70703-0.94531 1.4922-1.6406 2.3594-2.0781 0.86328-0.44531 1.8594-0.67188 2.9844-0.67188 1.9766 0 3.6016 0.79297 4.875 2.375 1.2812 1.5742 1.9219 3.6016 1.9219 6.0781 0 2.4922-0.64062 4.5273-1.9219 6.1094-1.2734 1.5742-2.8984 2.3594-4.875 2.3594-1.125 0-2.1211-0.22656-2.9844-0.67188-0.86719-0.44531-1.6523-1.1406-2.3594-2.0781v2.3281h-5.1562v-22.391h5.1562z"/>
  </symbol>
  <symbol id="e" overflow="visible">
   <path d="m0.35938-16.109h5.1562l4.3281 10.922 3.6875-10.922h5.1406l-6.7656 17.641c-0.6875 1.7891-1.4844 3.0391-2.3906 3.75-0.90625 0.71875-2.1055 1.0781-3.5938 1.0781h-2.9688v-3.375h1.6094c0.875 0 1.5078-0.14062 1.9062-0.42188 0.39453-0.28125 0.70312-0.78125 0.92188-1.5l0.15625-0.4375z"/>
  </symbol>
  <symbol id="j" overflow="visible">
   <path d="m2.7031-21.484h7.0469l4.8906 11.5 4.9219-11.5h7.0469v21.484h-5.2344v-15.719l-4.9531 11.594h-3.5156l-4.9531-11.594v15.719h-5.25z"/>
  </symbol>
  <symbol id="i" overflow="visible">
   <path d="m2.7031-21.484h6.1875l7.8125 14.734v-14.734h5.25v21.484h-6.1875l-7.8125-14.734v14.734h-5.25z"/>
  </symbol>
  <symbol id="h" overflow="visible">
   <path d="m2.2969-6.2812v-9.8281h5.1875v1.6094c0 0.875-0.007813 1.9766-0.015625 3.2969-0.011719 1.3125-0.015625 2.1875-0.015625 2.625 0 1.293 0.03125 2.2266 0.09375 2.7969 0.070313 0.57422 0.19141 0.99219 0.35938 1.25 0.20703 0.33594 0.47656 0.59375 0.8125 0.78125 0.34375 0.17969 0.73828 0.26562 1.1875 0.26562 1.0703 0 1.9141-0.41016 2.5312-1.2344 0.61328-0.82031 0.92188-1.9688 0.92188-3.4375v-7.9531h5.1406v16.109h-5.1406v-2.3281c-0.78125 0.9375-1.6094 1.6328-2.4844 2.0781-0.86719 0.44531-1.8203 0.67188-2.8594 0.67188-1.8672 0-3.2891-0.56641-4.2656-1.7031-0.96875-1.1445-1.4531-2.8125-1.4531-5z"/>
  </symbol>
  <symbol id="g" overflow="visible">
   <path d="m18.672-9.8125v9.8125h-5.1719v-7.4844c0-1.4062-0.03125-2.375-0.09375-2.9062s-0.17188-0.91406-0.32812-1.1562c-0.19922-0.34375-0.47656-0.60938-0.82812-0.79688-0.34375-0.1875-0.73438-0.28125-1.1719-0.28125-1.0742 0-1.918 0.41797-2.5312 1.25-0.61719 0.83594-0.92188 1.9844-0.92188 3.4531v7.9219h-5.1562v-22.391h5.1562v8.6406c0.78125-0.94531 1.6016-1.6406 2.4688-2.0781 0.875-0.44531 1.8438-0.67188 2.9062-0.67188 1.8516 0 3.2578 0.57422 4.2188 1.7188 0.96875 1.1367 1.4531 2.793 1.4531 4.9688z"/>
  </symbol>
  <symbol id="s" overflow="visible">
   <path d="m2.4688-16.109h5.1562v16.109h-5.1562zm0-6.2812h5.1562v4.2031h-5.1562z"/>
  </symbol>
  <symbol id="r" overflow="visible">
   <path d="m13.078-22.391v3.375h-2.8438c-0.73047 0-1.2422 0.13672-1.5312 0.40625-0.28125 0.26172-0.42188 0.71875-0.42188 1.375v1.125h4.3906v3.6719h-4.3906v12.438h-5.1562v-12.438h-2.5625v-3.6719h2.5625v-1.125c0-1.7578 0.48828-3.0547 1.4688-3.8906 0.97656-0.84375 2.4922-1.2656 4.5469-1.2656z"/>
  </symbol>
  <symbol id="f" overflow="visible">
   <path d="m10.141-12.828c-1.1367 0-2.0078 0.41406-2.6094 1.2344-0.59375 0.82422-0.89062 2.0078-0.89062 3.5469 0 1.543 0.29688 2.7266 0.89062 3.5469 0.60156 0.82422 1.4727 1.2344 2.6094 1.2344 1.125 0 1.9844-0.41016 2.5781-1.2344 0.59375-0.82031 0.89062-2.0039 0.89062-3.5469 0-1.5391-0.29688-2.7227-0.89062-3.5469-0.59375-0.82031-1.4531-1.2344-2.5781-1.2344zm0-3.6719c2.7695 0 4.9375 0.75 6.5 2.25 1.5625 1.4922 2.3438 3.5586 2.3438 6.2031 0 2.6484-0.78125 4.7188-2.3438 6.2188s-3.7305 2.25-6.5 2.25c-2.7812 0-4.9609-0.75-6.5312-2.25-1.5625-1.5-2.3438-3.5703-2.3438-6.2188 0-2.6445 0.78125-4.7109 2.3438-6.2031 1.5703-1.5 3.75-2.25 6.5312-2.25z"/>
  </symbol>
  <symbol id="q" overflow="visible">
   <path d="m17.406-13.438c0.65625-1 1.4297-1.7578 2.3281-2.2812 0.89453-0.51953 1.8789-0.78125 2.9531-0.78125 1.8516 0 3.2656 0.57422 4.2344 1.7188 0.96875 1.1367 1.4531 2.793 1.4531 4.9688v9.8125h-5.1875v-8.4062c0.007812-0.125 0.015625-0.25391 0.015625-0.39062 0.007813-0.13281 0.015625-0.32812 0.015625-0.57812 0-1.1328-0.16797-1.957-0.5-2.4688-0.33594-0.51953-0.875-0.78125-1.625-0.78125-0.98047 0-1.7344 0.40625-2.2656 1.2188-0.53125 0.80469-0.80859 1.9688-0.82812 3.5v7.9062h-5.1719v-8.4062c0-1.7812-0.15625-2.9258-0.46875-3.4375-0.30469-0.51953-0.85156-0.78125-1.6406-0.78125-0.99219 0-1.7578 0.40625-2.2969 1.2188-0.53125 0.8125-0.79688 1.9766-0.79688 3.4844v7.9219h-5.1719v-16.109h5.1719v2.3594c0.63281-0.91406 1.3594-1.6016 2.1719-2.0625 0.82031-0.45703 1.7266-0.6875 2.7188-0.6875 1.1133 0 2.0977 0.27344 2.9531 0.8125 0.85156 0.53125 1.5 1.2812 1.9375 2.25z"/>
  </symbol>
  <symbol id="p" overflow="visible">
   <path d="m18.672-9.8125v9.8125h-5.1719v-7.5156c0-1.3828-0.03125-2.3438-0.09375-2.875s-0.17188-0.91406-0.32812-1.1562c-0.19922-0.34375-0.47656-0.60938-0.82812-0.79688-0.34375-0.1875-0.73438-0.28125-1.1719-0.28125-1.0742 0-1.918 0.41797-2.5312 1.25-0.61719 0.83594-0.92188 1.9844-0.92188 3.4531v7.9219h-5.1562v-16.109h5.1562v2.3594c0.78125-0.94531 1.6016-1.6406 2.4688-2.0781 0.875-0.44531 1.8438-0.67188 2.9062-0.67188 1.8516 0 3.2578 0.57422 4.2188 1.7188 0.96875 1.1367 1.4531 2.793 1.4531 4.9688z"/>
  </symbol>
  <symbol id="o" overflow="visible">
   <path d="m2.7031-21.484h9.2031c2.7266 0 4.8203 0.60938 6.2812 1.8281 1.4688 1.2109 2.2031 2.9375 2.2031 5.1875s-0.73438 3.9844-2.2031 5.2031c-1.4609 1.2109-3.5547 1.8125-6.2812 1.8125h-3.6562v7.4531h-5.5469zm5.5469 4.0156v6h3.0625c1.0703 0 1.8984-0.25781 2.4844-0.78125 0.58203-0.51953 0.875-1.2578 0.875-2.2188 0-0.96875-0.29297-1.707-0.875-2.2188-0.58594-0.51953-1.4141-0.78125-2.4844-0.78125z"/>
  </symbol>
  <symbol id="n" overflow="visible">
   <path d="m2.4688-16.109h5.1562v15.828c0 2.1562-0.52344 3.8008-1.5625 4.9375-1.0312 1.1328-2.5312 1.7031-4.5 1.7031h-2.5469v-3.375h0.89062c0.97656 0 1.6484-0.22656 2.0156-0.67188 0.36328-0.4375 0.54688-1.3047 0.54688-2.5938zm0-6.2812h5.1562v4.2031h-5.1562z"/>
  </symbol>
  <symbol id="m" overflow="visible">
   <path d="m15.5-15.609v4.2031c-0.69922-0.47656-1.4023-0.83203-2.1094-1.0625-0.71094-0.23828-1.4453-0.35938-2.2031-0.35938-1.4375 0-2.5586 0.42188-3.3594 1.2656-0.79297 0.84375-1.1875 2.0156-1.1875 3.5156 0 1.5117 0.39453 2.6875 1.1875 3.5312 0.80078 0.83594 1.9219 1.25 3.3594 1.25 0.8125 0 1.5781-0.11719 2.2969-0.35938 0.72656-0.23828 1.3984-0.59375 2.0156-1.0625v4.2188c-0.8125 0.29297-1.6367 0.50781-2.4688 0.65625-0.82422 0.15625-1.6523 0.23438-2.4844 0.23438-2.9062 0-5.1836-0.74219-6.8281-2.2344-1.6367-1.5-2.4531-3.5781-2.4531-6.2344s0.81641-4.7266 2.4531-6.2188c1.6445-1.4883 3.9219-2.2344 6.8281-2.2344 0.84375 0 1.6758 0.074219 2.5 0.21875 0.82031 0.14844 1.6406 0.37109 2.4531 0.67188z"/>
  </symbol>
 </defs>
 <g>
  <path d="m350 93.59c-42.359 0-82.715 18.047-110.96 49.621-28.242 31.574-41.699 73.68-36.996 115.78 4.6992 42.098 27.113 80.203 61.625 104.77 13.051 8.9219 20.727 23.82 20.418 39.625v17.5c-9.6523 4.3203-16.449 13.25-18.043 23.703-1.5977 10.457 2.2305 21.004 10.156 28.008-4.3281 9.168-3.918 19.871 1.0977 28.68 5.0117 8.8125 14.004 14.633 24.098 15.594 3.8555 14.363 13.863 26.281 27.34 32.562 13.48 6.2852 29.043 6.2852 42.523 0 13.477-6.2812 23.484-18.199 27.34-32.562 10.094-0.96094 19.086-6.7812 24.098-15.594 5.0156-8.8086 5.4258-19.512 1.0977-28.68 7.9258-7.0039 11.754-17.551 10.156-28.008-1.5938-10.453-8.3906-19.383-18.043-23.703v-17.5c-0.30859-15.805 7.3672-30.703 20.418-39.625 34.512-24.562 56.926-62.668 61.625-104.77 4.7031-42.102-8.7539-84.207-36.996-115.78-28.242-31.574-68.598-49.621-110.96-49.621zm53.172 350.23c1.4727-0.050781 2.9062 0.5 3.9648 1.5273 1.0625 1.0273 1.6602 2.4375 1.6602 3.9141 0 1.4766-0.59766 2.8906-1.6602 3.9141-1.0586 1.0273-2.4922 1.5781-3.9648 1.5312h-106.34c-1.4727 0.046875-2.9062-0.50391-3.9648-1.5312-1.0625-1.0234-1.6602-2.4375-1.6602-3.9141 0-1.4766 0.59766-2.8867 1.6602-3.9141 1.0586-1.0273 2.4922-1.5781 3.9648-1.5273zm-53.172 84.594c-8.418-0.023437-16.246-4.3359-20.762-11.441h41.523c-4.5156 7.1055-12.344 11.418-20.762 11.441zm45.637-37.137h-91.273c-2.9375-0.097657-5.2695-2.5039-5.2695-5.4453 0-2.9375 2.332-5.3477 5.2695-5.4414h91.273c2.9375 0.09375 5.2695 2.5039 5.2695 5.4414 0 2.9414-2.332 5.3477-5.2695 5.4453zm25.773-148.46v-0.003906c-19.812 13.75-31.5 36.441-31.195 60.551v14.738h-80.43v-14.738c0.30859-24.109-11.383-46.801-31.195-60.551-28.57-20.32-47.129-51.852-51.027-86.691-3.8984-34.844 7.2344-69.699 30.605-95.832 23.371-26.133 56.773-41.07 91.832-41.07s68.461 14.938 91.832 41.07c23.371 26.133 34.504 60.988 30.605 95.832-3.8984 34.84-22.457 66.371-51.027 86.691zm-288-194.79c3.5469-6.1484 11.406-8.2578 17.555-4.7148l39.453 22.781v0.003906c6 3.6133 8 11.367 4.4961 17.43-3.5 6.0664-11.215 8.2109-17.344 4.8203l-39.453-22.766c-2.9531-1.7031-5.1055-4.5078-5.9883-7.8008-0.88281-3.293-0.42187-6.8008 1.2812-9.7539zm203.73-84.145v-45.137c0-7.0977 5.7539-12.852 12.852-12.852s12.852 5.7539 12.852 12.852v45.137c0 7.0938-5.7539 12.848-12.852 12.848s-12.852-5.7539-12.852-12.848zm167.72 119.77c-3.543-6.1484-1.4297-14.004 4.7188-17.547l39.453-22.781v-0.003906c6.1445-3.5469 14.004-1.4414 17.555 4.7031 3.5469 6.1484 1.4414 14.008-4.707 17.555l-39.453 22.777c-2.9531 1.7031-6.4609 2.1641-9.7539 1.2812-3.293-0.88672-6.0977-3.043-7.8008-5.9961zm-63.816-93.992 22.648-39.223c1.668-3.0195 4.4844-5.2383 7.8047-6.1641 3.3242-0.92188 6.8789-0.47266 9.8672 1.2539s5.1562 4.5781 6.0195 7.918c0.85938 3.3398 0.34375 6.8867-1.4375 9.8438l-22.648 39.223c-3.6133 6-11.367 8-17.434 4.4961-6.0664-3.5039-8.207-11.219-4.8203-17.348zm-227.01-26.371c-1.7812-2.957-2.2969-6.5039-1.4375-9.8438 0.86328-3.3398 3.0312-6.1914 6.0195-7.918s6.543-2.1758 9.8672-1.2539c3.3203 0.92578 6.1367 3.1445 7.8047 6.1641l22.648 39.223c1.7773 2.957 2.2969 6.5 1.4336 9.8438-0.85938 3.3398-3.0273 6.1914-6.0156 7.918-2.9883 1.7266-6.543 2.1758-9.8672 1.2539-3.3242-0.92578-6.1367-3.1445-7.8047-6.1641zm325.62 319.28c-1.6992 2.9531-4.5039 5.1094-7.7969 5.9922-3.2891 0.88281-6.7969 0.42578-9.75-1.2773l-39.461-22.781v-0.003906c-3.0195-1.668-5.2383-4.4805-6.1641-7.8047-0.92188-3.3242-0.46875-6.8789 1.2539-9.8672 1.7266-2.9883 4.5781-5.1562 7.9219-6.0156 3.3398-0.86328 6.8867-0.34375 9.8398 1.4375l39.461 22.781c6.1367 3.5469 8.2383 11.398 4.6953 17.539zm44.352-109.5c0 3.4062-1.3516 6.6758-3.7617 9.0859-2.4102 2.4102-5.6797 3.7656-9.0859 3.7656h-45.711c-3.4531 0.074219-6.793-1.25-9.2617-3.6641-2.4688-2.418-3.8633-5.7305-3.8633-9.1836 0-3.457 1.3945-6.7695 3.8633-9.1836 2.4688-2.418 5.8086-3.7383 9.2617-3.6641h45.68c3.4141-0.011719 6.6875 1.3398 9.1055 3.75 2.418 2.4062 3.7734 5.6797 3.7734 9.0938zm-409.45 12.852h-45.707c-3.457 0.074219-6.793-1.25-9.2656-3.6641-2.4688-2.418-3.8594-5.7305-3.8594-9.1836 0-3.457 1.3906-6.7695 3.8594-9.1836 2.4727-2.418 5.8086-3.7383 9.2656-3.6641h45.68c3.4531-0.074219 6.793 1.2461 9.2617 3.6641 2.4688 2.4141 3.8633 5.7266 3.8633 9.1836 0 3.4531-1.3945 6.7656-3.8633 9.1836-2.4688 2.4141-5.8086 3.7383-9.2617 3.6641zm47.504 61.027h0.003907c1.6992 2.9531 2.1602 6.4609 1.2773 9.75-0.88672 3.293-3.043 6.0977-5.9961 7.7969l-39.48 22.785c-6.1445 3.5469-14.004 1.4414-17.551-4.7031-3.5469-6.1484-1.4414-14.004 4.7031-17.551l39.461-22.781c2.9531-1.707 6.4609-2.1719 9.7539-1.2891 3.2891 0.88281 6.0977 3.0391 7.8008 5.9922z"/>
  <use x="70" y="648.421875" xlink:href="#t"/>
  <use x="91.628906" y="648.421875" xlink:href="#d"/>
  <use x="106.164062" y="648.421875" xlink:href="#c"/>
  <use x="126.15625" y="648.421875" xlink:href="#a"/>
  <use x="146.042969" y="648.421875" xlink:href="#b"/>
  <use x="160.132812" y="648.421875" xlink:href="#c"/>
  <use x="180.125" y="648.421875" xlink:href="#l"/>
  <use x="211.480469" y="648.421875" xlink:href="#k"/>
  <use x="232.582031" y="648.421875" xlink:href="#e"/>
  <use x="262.054688" y="648.421875" xlink:href="#j"/>
  <use x="291.382812" y="648.421875" xlink:href="#a"/>
  <use x="311.273438" y="648.421875" xlink:href="#e"/>
  <use x="330.484375" y="648.421875" xlink:href="#a"/>
  <use x="360.636719" y="648.421875" xlink:href="#i"/>
  <use x="385.300781" y="648.421875" xlink:href="#h"/>
  <use x="406.285156" y="648.421875" xlink:href="#d"/>
  <use x="420.820312" y="648.421875" xlink:href="#g"/>
  <use x="441.804688" y="648.421875" xlink:href="#a"/>
  <use x="461.691406" y="648.421875" xlink:href="#e"/>
  <use x="480.90625" y="648.421875" xlink:href="#a"/>
  <use x="500.792969" y="648.421875" xlink:href="#b"/>
  <use x="514.882812" y="648.421875" xlink:href="#s"/>
  <use x="70" y="677.894531" xlink:href="#r"/>
  <use x="82.824219" y="677.894531" xlink:href="#d"/>
  <use x="97.359375" y="677.894531" xlink:href="#f"/>
  <use x="117.605469" y="677.894531" xlink:href="#q"/>
  <use x="158.578125" y="677.894531" xlink:href="#b"/>
  <use x="172.667969" y="677.894531" xlink:href="#g"/>
  <use x="193.652344" y="677.894531" xlink:href="#c"/>
  <use x="223.902344" y="677.894531" xlink:href="#i"/>
  <use x="248.570312" y="677.894531" xlink:href="#f"/>
  <use x="268.816406" y="677.894531" xlink:href="#h"/>
  <use x="289.800781" y="677.894531" xlink:href="#p"/>
  <use x="321.042969" y="677.894531" xlink:href="#o"/>
  <use x="342.644531" y="677.894531" xlink:href="#d"/>
  <use x="357.179688" y="677.894531" xlink:href="#f"/>
  <use x="377.429688" y="677.894531" xlink:href="#n"/>
  <use x="387.53125" y="677.894531" xlink:href="#c"/>
  <use x="407.523437" y="677.894531" xlink:href="#m"/>
  <use x="424.992188" y="677.894531" xlink:href="#b"/>
 </g>
</svg>
