<svg width="99" height="99" viewBox="0 0 99 99" fill="none" xmlns="http://www.w3.org/2000/svg">
<path d="M39 71H59M49 13V17M75 24L72 27M86 50H82M16 50H12M26 27L23 24M34 65C31.1258 62.125 29.7927 57.9872 29 54C28.2073 50.0128 28.444 45.7557 30 42C31.556 38.2443 34.6198 35.2584 38 33C41.3802 30.7416 44.9347 29 49 29C53.0653 29 56.6198 30.7416 60 33C63.3802 35.2584 66.444 38.2443 68 42C69.556 45.7557 69.7927 50.0128 69 54C68.2073 57.9872 66.8742 62.125 64 65L61 67C59.712 68.2882 58.6969 69.3169 58 71C57.3031 72.6831 56.9998 75.1784 57 77V79C57 81.1807 56.542 83.458 55 85C53.458 86.542 51.1807 87 49 87C46.8193 87 44.542 86.542 43 85C41.458 83.458 41 81.1807 41 79V77C41 73.3206 39.5982 69.5982 37 67L34 65Z" stroke="#06211A" stroke-width="4" stroke-linecap="round" stroke-linejoin="round"/>
</svg>
