<svg width="495" height="369" viewBox="0 0 495 369" fill="none" xmlns="http://www.w3.org/2000/svg">
<path d="M495 324.126H0V324.374H495V324.126Z" fill="#E6E6E6"/>
<path d="M441.391 332.69H407.335V332.937H441.391V332.69Z" fill="#E6E6E6"/>
<path d="M257.053 332.69H246.876V332.937H257.053V332.69Z" fill="#E6E6E6"/>
<path d="M396.99 337.56H377.823V337.808H396.99V337.56Z" fill="#E6E6E6"/>
<path d="M114.474 333.274H71.7158V333.521H114.474V333.274Z" fill="#E6E6E6"/>
<path d="M127.384 329.749H110.019V329.997H127.384V329.749Z" fill="#E6E6E6"/>
<path d="M316.147 340.233H223.403V340.481H316.147V340.233Z" fill="#E6E6E6"/>
<path d="M234.63 279.972H43.4711C41.9736 279.969 40.5383 279.373 39.4803 278.313C38.4223 277.253 37.8281 275.817 37.8281 274.319V5.6034C37.8412 4.11447 38.4411 2.6908 39.4977 1.64164C40.5543 0.592474 41.9821 0.00255062 43.4711 0H234.63C236.129 0 237.567 0.595572 238.627 1.6557C239.688 2.71582 240.283 4.15366 240.283 5.6529V274.319C240.283 275.818 239.688 277.256 238.627 278.316C237.567 279.376 236.129 279.972 234.63 279.972ZM43.4711 0.198001C42.0392 0.200623 40.6669 0.771275 39.6553 1.7847C38.6438 2.79812 38.0756 4.17151 38.0756 5.6034V274.319C38.0756 275.751 38.6438 277.124 39.6553 278.138C40.6669 279.151 42.0392 279.722 43.4711 279.725H234.63C236.063 279.722 237.436 279.152 238.45 278.138C239.463 277.125 240.033 275.752 240.036 274.319V5.6034C240.033 4.1706 239.463 2.79724 238.45 1.7841C237.436 0.770953 236.063 0.200618 234.63 0.198001H43.4711Z" fill="#E6E6E6"/>
<path d="M448.777 279.972H257.608C256.11 279.969 254.673 279.373 253.614 278.313C252.554 277.254 251.958 275.818 251.955 274.319V5.6034C251.971 4.11356 252.573 2.68991 253.631 1.64102C254.689 0.592128 256.118 0.00252281 257.608 0H448.777C450.264 0.00515245 451.69 0.596227 452.744 1.64511C453.798 2.69399 454.397 4.11617 454.41 5.6034V274.319C454.41 275.815 453.817 277.25 452.761 278.309C451.706 279.369 450.273 279.967 448.777 279.972ZM257.608 0.198001C256.175 0.200618 254.802 0.770953 253.789 1.7841C252.776 2.79724 252.205 4.1706 252.203 5.6034V274.319C252.205 275.752 252.776 277.125 253.789 278.138C254.802 279.152 256.175 279.722 257.608 279.725H448.777C450.21 279.722 451.583 279.152 452.596 278.138C453.609 277.125 454.18 275.752 454.182 274.319V5.6034C454.18 4.1706 453.609 2.79724 452.596 1.7841C451.583 0.770953 450.21 0.200618 448.777 0.198001H257.608Z" fill="#E6E6E6"/>
<path d="M202.237 324.126H286.209C277.982 293.099 282.912 259.687 300.98 228.66H217.008C198.931 259.687 194.04 293.099 202.237 324.126Z" fill="#D6FFEF"/>
<path d="M199.376 273.24H284.259C287.173 257.526 292.826 242.447 300.96 228.69H216.087C207.954 242.448 202.298 257.527 199.376 273.24Z" fill="#E6E6E6"/>
<path d="M74.1511 261.499L413.563 261.499C419.14 261.499 423.661 256.978 423.661 251.401V42.372C423.661 36.795 419.14 32.274 413.563 32.274L74.1511 32.274C68.5741 32.274 64.0531 36.795 64.0531 42.372V251.401C64.0531 256.978 68.5741 261.499 74.1511 261.499Z" fill="#E6E6E6"/>
<path d="M78.9127 261.499L418.324 261.499C423.901 261.499 428.422 256.978 428.422 251.401V42.372C428.422 36.795 423.901 32.274 418.324 32.274L78.9127 32.274C73.3358 32.274 68.8147 36.795 68.8147 42.372V251.401C68.8147 256.978 73.3358 261.499 78.9127 261.499Z" fill="#F5F5F5"/>
<path d="M68.8147 228.67L428.422 228.67V43.8867L68.8147 43.8867V228.67Z" fill="white"/>
<path d="M248.629 252.381C252.429 252.381 255.509 249.3 255.509 245.5C255.509 241.7 252.429 238.62 248.629 238.62C244.829 238.62 241.748 241.7 241.748 245.5C241.748 249.3 244.829 252.381 248.629 252.381Z" fill="#E6E6E6"/>
<path d="M217.8 317.483H313.662C315.423 317.483 317.113 318.183 318.359 319.429C319.605 320.675 320.304 322.364 320.304 324.126H211.177C211.177 322.368 211.874 320.681 213.115 319.436C214.357 318.191 216.041 317.488 217.8 317.483Z" fill="#F5F5F5"/>
<path d="M195.03 317.483H212.196C213.956 317.486 215.644 318.187 216.887 319.432C218.131 320.678 218.829 322.366 218.829 324.126H188.337C188.339 323.25 188.513 322.383 188.85 321.574C189.188 320.765 189.682 320.031 190.303 319.414C190.925 318.797 191.663 318.309 192.474 317.977C193.285 317.646 194.154 317.478 195.03 317.483Z" fill="#E6E6E6"/>
<path d="M281.655 17.4735C281.652 15.9908 281.062 14.5696 280.014 13.5212C278.965 12.4728 277.544 11.8826 276.062 11.88H101.822C100.34 11.8852 98.92 12.4762 97.8721 13.5241C96.8242 14.5719 96.2332 15.9916 96.228 17.4735V35.4717H281.655V17.4735Z" fill="#E6E6E6"/>
<path d="M236.442 27.9081C238.776 27.9081 240.669 26.0155 240.669 23.6808C240.669 21.3461 238.776 19.4535 236.442 19.4535C234.107 19.4535 232.214 21.3461 232.214 23.6808C232.214 26.0155 234.107 27.9081 236.442 27.9081Z" fill="white"/>
<path d="M251.421 27.9081C253.755 27.9081 255.648 26.0155 255.648 23.6808C255.648 21.3461 253.755 19.4535 251.421 19.4535C249.086 19.4535 247.193 21.3461 247.193 23.6808C247.193 26.0155 249.086 27.9081 251.421 27.9081Z" fill="white"/>
<path d="M266.409 27.9081C268.744 27.9081 270.636 26.0155 270.636 23.6808C270.636 21.3461 268.744 19.4535 266.409 19.4535C264.074 19.4535 262.182 21.3461 262.182 23.6808C262.182 26.0155 264.074 27.9081 266.409 27.9081Z" fill="white"/>
<path d="M101.871 156.697H276.111C277.592 156.695 279.012 156.106 280.06 155.06C281.108 154.013 281.699 152.595 281.704 151.114V35.4717H96.2773V151.114C96.2852 152.594 96.8773 154.011 97.9249 155.057C98.9725 156.102 100.391 156.692 101.871 156.697Z" fill="#D6FFEF"/>
<path d="M294.129 36.1845C294.124 34.7052 293.534 33.2881 292.488 32.2421C291.442 31.1961 290.024 30.6061 288.545 30.6009H114.355C112.874 30.6035 111.454 31.1923 110.406 32.2386C109.358 33.2849 108.766 34.7035 108.761 36.1845V54.1926H294.129V36.1845Z" fill="#F5F5F5"/>
<path d="M248.916 46.6191C251.25 46.6191 253.143 44.7265 253.143 42.3918C253.143 40.0571 251.25 38.1645 248.916 38.1645C246.581 38.1645 244.688 40.0571 244.688 42.3918C244.688 44.7265 246.581 46.6191 248.916 46.6191Z" fill="#E6E6E6"/>
<path d="M263.904 46.6191C266.239 46.6191 268.131 44.7265 268.131 42.3918C268.131 40.0571 266.239 38.1645 263.904 38.1645C261.569 38.1645 259.677 40.0571 259.677 42.3918C259.677 44.7265 261.569 46.6191 263.904 46.6191Z" fill="#E6E6E6"/>
<path d="M283.14 42.3918C283.14 43.2279 282.892 44.0452 282.428 44.7404C281.963 45.4355 281.303 45.9774 280.531 46.2973C279.758 46.6173 278.908 46.701 278.088 46.5379C277.268 46.3748 276.515 45.9722 275.924 45.381C275.333 44.7898 274.93 44.0365 274.767 43.2165C274.604 42.3965 274.687 41.5465 275.007 40.7741C275.327 40.0016 275.869 39.3414 276.564 38.8769C277.259 38.4124 278.077 38.1645 278.913 38.1645C280.034 38.1645 281.109 38.6099 281.902 39.4026C282.695 40.1954 283.14 41.2706 283.14 42.3918Z" fill="#E6E6E6"/>
<path d="M114.355 175.418H288.595C290.076 175.413 291.494 174.822 292.541 173.773C293.587 172.725 294.176 171.306 294.178 169.825V54.1926H108.761V169.825C108.764 171.307 109.354 172.728 110.402 173.777C111.451 174.825 112.872 175.415 114.355 175.418Z" fill="white"/>
<path d="M306.613 54.9054C306.61 53.4227 306.02 52.0015 304.972 50.9531C303.923 49.9047 302.502 49.3145 301.019 49.3119H126.829C125.346 49.3145 123.925 49.9047 122.877 50.9531C121.828 52.0015 121.238 53.4227 121.235 54.9054V72.9036H306.613V54.9054Z" fill="#D6FFEF"/>
<path d="M261.4 65.34C263.734 65.34 265.627 63.4474 265.627 61.1127C265.627 58.778 263.734 56.8854 261.4 56.8854C259.065 56.8854 257.172 58.778 257.172 61.1127C257.172 63.4474 259.065 65.34 261.4 65.34Z" fill="#F0F0F0"/>
<path d="M276.378 65.34C278.713 65.34 280.605 63.4474 280.605 61.1127C280.605 58.778 278.713 56.8854 276.378 56.8854C274.044 56.8854 272.151 58.778 272.151 61.1127C272.151 63.4474 274.044 65.34 276.378 65.34Z" fill="#F0F0F0"/>
<path d="M295.594 61.1127C295.596 61.9512 295.349 62.7714 294.885 63.4695C294.42 64.1676 293.759 64.7122 292.985 65.0344C292.211 65.3566 291.359 65.442 290.536 65.2796C289.714 65.1172 288.958 64.7144 288.364 64.1223C287.771 63.5301 287.366 62.7751 287.202 61.9529C287.037 61.1307 287.121 60.2782 287.441 59.5034C287.762 58.7286 288.305 58.0662 289.002 57.6002C289.699 57.1342 290.518 56.8854 291.357 56.8854C292.479 56.8854 293.555 57.3305 294.349 58.1229C295.144 58.9154 295.591 59.9906 295.594 61.1127Z" fill="#F0F0F0"/>
<path d="M126.829 194.139H301.069C302.551 194.134 303.97 193.543 305.018 192.495C306.066 191.447 306.657 190.027 306.662 188.546V72.9036H121.235V188.546C121.241 190.027 121.832 191.447 122.879 192.495C123.927 193.543 125.347 194.134 126.829 194.139Z" fill="#E6E6E6"/>
<path opacity="0.5" d="M353.43 122.166H289.585V217.503H384.932V122.166H353.43ZM321.899 122.909H352.678V153.698H321.869L321.899 122.909ZM352.678 185.229H321.869V154.44H352.648L352.678 185.229ZM290.367 122.909H321.146V153.698H290.337L290.367 122.909ZM290.367 154.44H321.146V185.229H290.337L290.367 154.44ZM321.116 216.81H290.337V186.021H321.116V216.81ZM352.648 216.81H321.869V186.021H352.648V216.81ZM384.179 216.81H353.43V186.021H384.209L384.179 216.81ZM384.179 185.279H353.43V154.44H384.209L384.179 185.279ZM353.43 153.698V122.909H384.209V153.698H353.43Z" fill="#E6E6E6"/>
<path d="M327.67 107.484L438.956 107.484V56.8755L327.67 56.8755V107.484Z" fill="#F5F5F5"/>
<path d="M438.956 76.6062V107.494H327.69V69.1317C346.153 69.1317 356.004 86.0607 378.843 86.0607C401.683 86.0607 408.563 76.6062 438.956 76.6062Z" fill="white"/>
<path d="M438.956 91.3671C413.949 91.3671 405.692 80.3088 391.644 80.3088C377.596 80.3088 370.696 91.9215 353.193 91.9215C334.957 91.9215 327.67 82.7937 327.67 82.7937V107.544H438.956V91.3671Z" fill="#E6E6E6"/>
<path d="M247.5 368.834C353.512 368.834 439.451 363.817 439.451 357.628C439.451 351.438 353.512 346.421 247.5 346.421C141.488 346.421 55.5488 351.438 55.5488 357.628C55.5488 363.817 141.488 368.834 247.5 368.834Z" fill="#F5F5F5"/>
<path d="M199.98 154.955C195.834 140.12 197.484 124.263 204.594 110.599C211.705 96.9348 223.745 86.4852 238.273 81.3681L242.006 93.1887C230.627 97.33 221.216 105.59 215.634 116.336C210.052 127.082 208.705 139.532 211.86 151.223L199.98 154.955Z" fill="#4DA87D"/>
<path d="M230.264 192.298C225.598 189.888 221.27 186.872 217.394 183.328C210.04 176.587 204.461 168.137 201.148 158.727L212.969 154.994C215.732 162.65 220.386 169.484 226.498 174.858C232.61 180.233 239.982 183.975 247.929 185.737C255.875 187.498 264.138 187.222 271.949 184.933C279.76 182.644 286.865 178.418 292.605 172.646L301.742 181.022C292.603 190.302 280.727 196.405 267.861 198.435C254.995 200.465 241.817 198.314 230.264 192.298Z" fill="#4DA87D"/>
<path opacity="0.7" d="M230.264 192.298C225.598 189.888 221.27 186.872 217.394 183.328C210.04 176.587 204.461 168.137 201.148 158.727L212.969 154.994C215.732 162.65 220.386 169.484 226.498 174.858C232.61 180.233 239.982 183.975 247.929 185.737C255.875 187.498 264.138 187.222 271.949 184.933C279.76 182.644 286.865 178.418 292.605 172.646L301.742 181.022C292.603 190.302 280.727 196.405 267.861 198.435C254.995 200.465 241.817 198.314 230.264 192.298Z" fill="white"/>
<path d="M295.327 169.726C301.96 161.863 305.908 152.087 306.595 141.823C307.282 131.56 304.673 121.345 299.147 112.668C293.621 103.991 285.468 97.3069 275.877 93.5892C266.285 89.8714 255.757 89.3149 245.827 92.0007L242.095 80.1207C257.265 75.8721 273.492 77.6881 287.348 85.185C301.204 92.6818 311.602 105.272 316.345 120.295C319.428 130.135 319.961 140.597 317.894 150.7C315.826 160.802 311.226 170.214 304.524 178.052L295.327 169.726Z" fill="#4DA87D"/>
<path opacity="0.3" d="M295.327 169.726C301.96 161.863 305.908 152.087 306.595 141.823C307.282 131.56 304.673 121.345 299.147 112.668C293.621 103.991 285.468 97.3069 275.877 93.5892C266.285 89.8714 255.757 89.3149 245.827 92.0007L242.095 80.1207C257.265 75.8721 273.492 77.6881 287.348 85.185C301.204 92.6818 311.602 105.272 316.345 120.295C319.428 130.135 319.961 140.597 317.894 150.7C315.826 160.802 311.226 170.214 304.524 178.052L295.327 169.726Z" fill="black"/>
<path d="M269.726 123.948C268.327 122.548 266.666 121.438 264.838 120.68C263.01 119.923 261.051 119.533 259.072 119.532C257.093 119.532 255.133 119.921 253.305 120.678C251.477 121.435 249.815 122.544 248.416 123.943C247.016 125.342 245.906 127.003 245.148 128.831C244.391 130.659 244 132.618 244 134.597C244 136.576 244.389 138.535 245.146 140.364C245.902 142.192 247.012 143.853 248.411 145.253L259.063 155.905L269.726 145.253C272.55 142.427 274.137 138.596 274.137 134.6C274.137 130.605 272.55 126.774 269.726 123.948Z" fill="#4DA87D"/>
<path opacity="0.3" d="M269.726 123.948C268.327 122.548 266.666 121.438 264.838 120.68C263.01 119.923 261.051 119.533 259.072 119.532C257.093 119.532 255.133 119.921 253.305 120.678C251.477 121.435 249.815 122.544 248.416 123.943C247.016 125.342 245.906 127.003 245.148 128.831C244.391 130.659 244 132.618 244 134.597C244 136.576 244.389 138.535 245.146 140.364C245.902 142.192 247.012 143.853 248.411 145.253L259.063 155.905L269.726 145.253C272.55 142.427 274.137 138.596 274.137 134.6C274.137 130.605 272.55 126.774 269.726 123.948Z" fill="black"/>
<path d="M259.668 159.063H258.479V163.815H259.668V159.063Z" fill="#4DA87D"/>
<path opacity="0.3" d="M259.668 159.063H258.479V163.815H259.668V159.063Z" fill="black"/>
<path d="M259.668 167.488H258.479V172.24H259.668V167.488Z" fill="#4DA87D"/>
<path opacity="0.3" d="M259.668 167.488H258.479V172.24H259.668V167.488Z" fill="black"/>
<path d="M217.949 205.94H177.626V351.945H217.949V205.94Z" fill="#4DA87D"/>
<path opacity="0.7" d="M217.949 205.94H177.626V351.945H217.949V205.94Z" fill="white"/>
<path d="M237.303 205.94H217.948V351.945H237.303V205.94Z" fill="#4DA87D"/>
<path opacity="0.5" d="M237.303 205.94H217.948V351.945H237.303V205.94Z" fill="white"/>
<path d="M292.506 259.677H291.476V282.407H292.506V259.677Z" fill="#263238"/>
<path d="M292.506 246.312H291.476V255.45H292.506V246.312Z" fill="#263238"/>
<path d="M321.146 296.505H280.823V351.945H321.146V296.505Z" fill="#4DA87D"/>
<path opacity="0.5" d="M321.146 296.505H280.823V351.945H321.146V296.505Z" fill="black"/>
<path d="M340.501 296.505H321.146V351.945H340.501V296.505Z" fill="#4DA87D"/>
<path opacity="0.6" d="M340.501 296.505H321.146V351.945H340.501V296.505Z" fill="black"/>
<path d="M269.547 175.072H229.225V351.945H269.547V175.072Z" fill="#4DA87D"/>
<path opacity="0.7" d="M269.547 175.072H229.225V351.945H269.547V175.072Z" fill="black"/>
<path d="M288.902 175.072H269.547V351.945H288.902V175.072Z" fill="#4DA87D"/>
<path opacity="0.8" d="M288.902 175.072H269.547V351.945H288.902V175.072Z" fill="black"/>
<path d="M348.707 134.274C347.321 145.223 345.579 156.202 344.025 167.063C343.832 168.649 343.544 170.223 343.163 171.775C342.718 173.365 342.149 174.917 341.46 176.418C340.147 179.241 338.506 181.899 336.57 184.338C334.726 186.681 332.693 188.87 330.491 190.882C329.422 191.872 328.284 192.862 327.135 193.723C325.987 194.584 324.848 195.476 323.532 196.337L320.017 191.951C320.839 191.04 321.769 189.971 322.611 188.981C323.452 187.991 324.284 186.922 325.096 185.873C326.683 183.821 328.135 181.668 329.442 179.428C330.701 177.326 331.74 175.1 332.541 172.785C332.909 171.713 333.19 170.614 333.382 169.498C333.555 168.326 333.668 167.147 333.719 165.964C334.085 160.34 334.639 154.777 335.253 149.223C335.867 143.669 336.6 138.184 337.471 132.66L348.707 134.274Z" fill="#E58A7B"/>
<path d="M351.173 130.512C353.697 137.214 340.916 156.945 340.916 156.945L325.938 148.817C328.191 142.677 331.102 136.798 334.62 131.284C339.887 123.384 348.41 123.156 351.173 130.512Z" fill="#4DA87D"/>
<path opacity="0.2" d="M351.173 130.512C353.697 137.214 340.916 156.945 340.916 156.945L325.938 148.817C328.191 142.677 331.102 136.798 334.62 131.284C339.887 123.384 348.41 123.156 351.173 130.512Z" fill="black"/>
<path d="M342.282 125.383C342.282 125.383 333.442 148.005 341.837 190.12H381.902C382.179 183.972 378.308 153.975 384.239 125.007C379.812 124.149 375.334 123.58 370.834 123.305C365.163 122.977 359.477 122.977 353.806 123.305C349.916 123.696 346.064 124.391 342.282 125.383Z" fill="#4DA87D"/>
<path opacity="0.2" d="M342.282 125.383C342.282 125.383 333.442 148.005 341.837 190.12H381.902C382.179 183.972 378.308 153.975 384.239 125.007C379.812 124.149 375.334 123.58 370.834 123.305C365.163 122.977 359.477 122.977 353.806 123.305C349.916 123.696 346.064 124.391 342.282 125.383Z" fill="black"/>
<path d="M347.599 348.401H340.115L338.115 331.056H345.609L347.599 348.401Z" fill="#E58A7B"/>
<path d="M400.306 348.401H392.822L386.981 331.056H394.475L400.306 348.401Z" fill="#E58A7B"/>
<path d="M391.822 347.49H400.95C401.099 347.489 401.243 347.54 401.359 347.634C401.475 347.728 401.554 347.859 401.584 348.005L403.069 354.668C403.101 354.829 403.097 354.996 403.057 355.156C403.016 355.317 402.941 355.466 402.835 355.593C402.73 355.72 402.598 355.822 402.448 355.891C402.298 355.961 402.135 355.996 401.97 355.994C399 355.945 396.891 355.776 393.188 355.776C390.911 355.776 386.258 356.014 383.081 356.014C379.903 356.014 379.526 352.905 380.813 352.618C386.585 351.361 388.733 349.648 390.605 347.955C390.939 347.655 391.373 347.489 391.822 347.49Z" fill="#263238"/>
<path d="M340.164 347.49H348.341C348.491 347.491 348.636 347.542 348.753 347.635C348.869 347.729 348.951 347.859 348.985 348.005L350.46 354.668C350.496 354.828 350.495 354.995 350.457 355.155C350.419 355.315 350.346 355.465 350.242 355.592C350.138 355.72 350.007 355.823 349.857 355.892C349.708 355.962 349.545 355.997 349.381 355.994C346.411 355.945 342.164 355.776 338.491 355.776C334.155 355.776 330.412 356.014 325.324 356.014C322.245 356.014 321.364 352.905 322.68 352.618C328.541 351.341 333.323 351.203 338.392 348.074C338.918 347.722 339.531 347.52 340.164 347.49Z" fill="#263238"/>
<path d="M322.74 189.09L316.463 194.337L324.71 199.178C325.926 198.239 326.809 196.937 327.231 195.46C327.653 193.983 327.592 192.41 327.056 190.971L322.74 189.09Z" fill="#E58A7B"/>
<path d="M338.125 331.066L339.144 340.006H346.639L345.609 331.066H338.125Z" fill="#CF6F64"/>
<path d="M394.475 331.066H386.981L389.991 340.006H397.485L394.475 331.066Z" fill="#CF6F64"/>
<path opacity="0.2" d="M376.081 138.848C377.388 132.234 379.932 133.383 382.348 136.64C381.316 145.405 380.84 154.227 380.922 163.053C379.279 160.251 373.893 149.926 376.081 138.848Z" fill="black"/>
<path d="M369.141 104.138C368.072 109.613 367.003 119.651 370.834 123.305C370.834 123.305 369.339 128.868 359.152 128.868C347.955 128.868 353.806 123.314 353.806 123.314C359.915 121.849 359.746 117.315 358.687 113.058L369.141 104.138Z" fill="#E58A7B"/>
<path d="M364.884 107.781L358.697 113.058C358.961 114.047 359.137 115.057 359.221 116.078C361.558 115.741 364.765 113.177 365.013 110.732C365.147 109.748 365.104 108.749 364.884 107.781Z" fill="#CF6F64"/>
<path d="M351.727 87.2784C348.044 88.8426 346.045 99.1584 350.737 101.544C355.43 103.93 358.707 84.3282 351.727 87.2784Z" fill="#263238"/>
<path d="M369.795 95.8914C369.339 103.307 369.448 107.672 365.706 111.484C360.073 117.206 350.905 113.81 349.143 106.405C347.549 99.7425 348.559 88.7238 355.826 85.7736C357.424 85.1158 359.164 84.8775 360.88 85.0813C362.596 85.2851 364.231 85.9242 365.631 86.938C367.031 87.9517 368.148 89.3065 368.877 90.8735C369.605 92.4405 369.921 94.1679 369.795 95.8914Z" fill="#E58A7B"/>
<path d="M346.916 82.6254C351.4 75.8241 352.103 79.101 352.034 82.3383C355.994 78.5961 363.31 73.8243 366.884 78.1803C367.307 78.6297 367.582 79.1981 367.673 79.8088C367.763 80.4195 367.664 81.0431 367.389 81.5958C371.992 80.3682 376.635 80.0217 375.794 84.9915C375.051 89.3871 371.913 91.0008 367.518 91.0305C359.637 92.1195 340.56 92.2284 346.916 82.6254Z" fill="#263238"/>
<path d="M369.27 103.158C365.31 104.772 357.34 90.2286 369.329 88.5159C381.318 86.8032 375.616 100.554 369.27 103.158Z" fill="#263238"/>
<path d="M373.151 104.069C372.148 105.646 370.566 106.766 368.745 107.187C366.329 107.722 365.25 105.524 366.042 103.307C366.755 101.327 368.864 98.6436 371.24 99.099C371.757 99.2096 372.238 99.4474 372.64 99.7909C373.042 100.134 373.352 100.573 373.542 101.066C373.731 101.56 373.795 102.093 373.727 102.617C373.658 103.141 373.46 103.64 373.151 104.069Z" fill="#E58A7B"/>
<path d="M377.061 90.7632C376.511 90.15 375.816 89.684 375.04 89.4074C374.263 89.1308 373.43 89.0524 372.616 89.1792C372.616 89.1792 376.487 86.13 377.061 90.7632Z" fill="#263238"/>
<path d="M341.837 190.08C341.837 190.08 320.76 243.639 321.532 266.488C322.373 290.248 336.382 338.273 336.382 338.273H349.074C349.074 338.273 343.876 291.624 344.441 268.3C345.054 242.857 368.201 190.09 368.201 190.09L341.837 190.08Z" fill="#4DA87D"/>
<path opacity="0.2" d="M358.667 207.811L359.885 210.573C355.442 222.019 351.583 233.683 348.321 245.52C347.975 232.016 350.767 217.127 358.667 207.811Z" fill="black"/>
<path d="M356.053 190.08C356.053 190.08 351.786 244.847 356.449 266.31C361.558 289.793 386.466 338.253 386.466 338.253H400.188C400.188 338.253 381.833 291.723 378.912 268.439C375.754 243.203 381.882 190.1 381.882 190.1L356.053 190.08Z" fill="#4DA87D"/>
<path d="M358.548 98.01C358.548 98.6139 358.222 99.1089 357.826 99.1089C357.43 99.1089 357.113 98.6139 357.113 98.01C357.113 97.4061 357.43 96.921 357.826 96.921C358.222 96.921 358.548 97.3566 358.548 98.01Z" fill="#263238"/>
<path d="M351.717 98.01C351.717 98.6139 351.391 99.1089 351.004 99.1089C350.618 99.1089 350.282 98.6139 350.282 98.01C350.282 97.4061 350.608 96.921 351.004 96.921C351.4 96.921 351.717 97.3566 351.717 98.01Z" fill="#263238"/>
<path d="M353.885 98.2674C353.165 100.11 352.196 101.846 351.004 103.425C351.416 103.721 351.887 103.923 352.384 104.017C352.882 104.111 353.394 104.095 353.885 103.97V98.2674Z" fill="#DF5753"/>
<path d="M355.647 105.643C355.6 105.643 355.555 105.624 355.521 105.591C355.488 105.557 355.469 105.512 355.469 105.465C355.469 105.417 355.488 105.372 355.521 105.339C355.555 105.305 355.6 105.287 355.647 105.287C356.399 105.303 357.144 105.142 357.821 104.817C358.499 104.492 359.091 104.012 359.548 103.415C359.561 103.396 359.578 103.379 359.597 103.366C359.617 103.353 359.639 103.344 359.662 103.339C359.685 103.335 359.708 103.335 359.731 103.339C359.754 103.344 359.776 103.353 359.796 103.366C359.832 103.392 359.858 103.431 359.867 103.475C359.876 103.519 359.868 103.565 359.845 103.603C359.362 104.257 358.728 104.784 357.997 105.14C357.266 105.495 356.46 105.667 355.647 105.643Z" fill="#263238"/>
<path d="M360.598 95.7627C360.544 95.7613 360.491 95.7481 360.444 95.7242C360.396 95.7002 360.354 95.6661 360.32 95.6241C360.062 95.26 359.721 94.9625 359.325 94.756C358.929 94.5495 358.49 94.4398 358.043 94.4361C357.996 94.4402 357.949 94.4345 357.904 94.4196C357.859 94.4046 357.818 94.3807 357.782 94.3491C357.747 94.3176 357.719 94.2792 357.699 94.2362C357.679 94.1933 357.668 94.1468 357.667 94.0995C357.662 94.0065 357.693 93.9151 357.754 93.8448C357.815 93.7745 357.901 93.7309 357.994 93.7233C358.557 93.7201 359.114 93.8513 359.617 94.1061C360.119 94.3609 360.554 94.732 360.885 95.1885C360.941 95.2652 360.965 95.3608 360.952 95.455C360.939 95.5492 360.89 95.6347 360.815 95.6934C360.75 95.7355 360.675 95.7594 360.598 95.7627Z" fill="#263238"/>
<path d="M348.728 95.6142C348.675 95.6237 348.622 95.6237 348.569 95.6142C348.527 95.5942 348.489 95.5659 348.458 95.5308C348.427 95.4958 348.403 95.4549 348.388 95.4105C348.374 95.366 348.368 95.3191 348.372 95.2724C348.376 95.2258 348.389 95.1804 348.411 95.139C348.645 94.629 348.998 94.1827 349.441 93.8381C349.884 93.4934 350.403 93.2605 350.955 93.159C351.043 93.1576 351.128 93.1886 351.194 93.246C351.261 93.3035 351.303 93.3835 351.315 93.4705C351.326 93.5576 351.304 93.6457 351.254 93.7179C351.204 93.7901 351.13 93.8414 351.044 93.8619C350.612 93.9559 350.207 94.15 349.864 94.4285C349.52 94.707 349.246 95.0622 349.064 95.4657C349.028 95.5196 348.977 95.5621 348.917 95.5883C348.858 95.6146 348.792 95.6236 348.728 95.6142Z" fill="#263238"/>
<path d="M387.09 130.829C387.733 132.215 388.278 133.452 388.793 134.789C389.307 136.125 389.783 137.392 390.307 138.749C391.297 141.382 392.119 144.055 392.871 146.777C393.624 149.5 394.247 152.282 394.762 155.113L395.119 157.242L395.376 159.42C395.475 160.142 395.515 160.885 395.574 161.627L395.643 162.736V163.013V163.479C395.643 163.825 395.643 164.142 395.643 164.469C395.447 166.418 394.883 168.313 393.98 170.052C393.277 171.451 392.48 172.8 391.594 174.092C389.954 176.453 388.158 178.702 386.219 180.824C382.487 184.933 378.439 188.743 374.111 192.218L370.151 188.258C373.388 184.12 376.616 179.843 379.556 175.596C380.987 173.529 382.309 171.387 383.516 169.181C384.068 168.191 384.548 167.162 384.951 166.102C385.245 165.425 385.413 164.701 385.446 163.964C385.446 163.964 385.446 164.023 385.446 163.964V163.736L385.308 162.845C385.219 162.241 385.139 161.647 385.001 161.043L384.644 159.232L384.219 157.41C383.615 154.975 382.932 152.529 382.14 150.094C381.348 147.659 380.506 145.233 379.605 142.808C378.704 140.382 377.714 137.937 376.794 135.699L387.09 130.829Z" fill="#E58A7B"/>
<path d="M389.337 348.846C388.829 348.885 388.322 348.749 387.902 348.46C387.76 348.341 387.652 348.187 387.588 348.014C387.524 347.84 387.506 347.653 387.535 347.47C387.535 347.368 387.562 347.268 387.614 347.181C387.667 347.094 387.742 347.022 387.832 346.975C388.674 346.55 391.08 348.035 391.357 348.203C391.386 348.222 391.409 348.248 391.423 348.28C391.437 348.312 391.442 348.347 391.436 348.381C391.43 348.416 391.413 348.449 391.389 348.476C391.364 348.502 391.332 348.521 391.297 348.529C390.657 348.706 390 348.812 389.337 348.846ZM388.228 347.292C388.149 347.286 388.07 347.303 388.001 347.342C387.951 347.342 387.892 347.411 387.882 347.549C387.87 347.669 387.886 347.789 387.929 347.901C387.972 348.013 388.041 348.113 388.129 348.193C388.966 348.569 389.914 348.615 390.783 348.322C390.006 347.817 389.138 347.467 388.228 347.292Z" fill="#4DA87D"/>
<path d="M391.258 348.579H391.179C390.397 348.153 388.902 346.52 389.06 345.678C389.087 345.548 389.158 345.431 389.26 345.346C389.363 345.262 389.491 345.215 389.624 345.213C389.759 345.198 389.895 345.21 390.024 345.249C390.153 345.288 390.273 345.353 390.377 345.441C391.248 346.154 391.426 348.312 391.436 348.411C391.437 348.442 391.43 348.472 391.416 348.5C391.402 348.527 391.382 348.551 391.357 348.569C391.326 348.582 391.291 348.586 391.258 348.579ZM389.753 345.51H389.664C389.436 345.51 389.416 345.639 389.407 345.688C389.317 346.183 390.268 347.421 391.04 348.005C390.986 347.153 390.679 346.336 390.159 345.659C390.046 345.562 389.902 345.51 389.753 345.51Z" fill="#4DA87D"/>
<path d="M337.045 348.846C336.406 348.903 335.766 348.739 335.234 348.381C335.112 348.276 335.017 348.142 334.959 347.992C334.9 347.842 334.879 347.68 334.897 347.52C334.903 347.423 334.932 347.329 334.982 347.246C335.032 347.164 335.101 347.094 335.184 347.044C336.105 346.54 339.144 348.035 339.451 348.242C339.485 348.259 339.513 348.286 339.531 348.319C339.549 348.353 339.556 348.391 339.55 348.429C339.544 348.466 339.527 348.501 339.5 348.528C339.474 348.555 339.439 348.573 339.401 348.579C338.626 348.738 337.837 348.827 337.045 348.846ZM335.689 347.292C335.576 347.284 335.463 347.308 335.362 347.361C335.327 347.378 335.297 347.404 335.278 347.438C335.258 347.472 335.25 347.511 335.253 347.549C335.239 347.653 335.25 347.759 335.286 347.858C335.322 347.956 335.383 348.044 335.461 348.114C335.927 348.529 337.164 348.599 338.807 348.322C337.834 347.803 336.78 347.455 335.689 347.292Z" fill="#4DA87D"/>
<path d="M339.372 348.579C339.346 348.588 339.318 348.588 339.293 348.579C338.392 348.173 336.6 346.599 336.739 345.708C336.739 345.51 336.907 345.262 337.402 345.213C337.579 345.195 337.758 345.213 337.928 345.266C338.098 345.318 338.256 345.405 338.392 345.52C339.382 346.302 339.55 348.322 339.55 348.401C339.555 348.432 339.551 348.465 339.539 348.494C339.526 348.524 339.506 348.55 339.481 348.569C339.446 348.583 339.408 348.587 339.372 348.579ZM337.59 345.51H337.481C337.164 345.51 337.144 345.668 337.135 345.708C337.055 346.213 338.273 347.49 339.194 348.044C339.11 347.192 338.764 346.386 338.204 345.738C338.034 345.589 337.816 345.508 337.59 345.51Z" fill="#4DA87D"/>
<path d="M371.883 187.16L364.538 189.14L370.626 196.525C370.626 196.525 376.517 193.466 375.249 190.169L371.883 187.16Z" fill="#E58A7B"/>
<path d="M360.736 194.08L366.053 199.94L370.626 196.495L364.538 189.11L360.736 194.08Z" fill="#E58A7B"/>
<path d="M384.04 338.57H401.979V333.739L381.932 333.432L384.04 338.57Z" fill="#4DA87D"/>
<path opacity="0.4" d="M384.04 338.57H401.979V333.739L381.932 333.432L384.04 338.57Z" fill="black"/>
<path d="M333.501 338.57H351.44V333.689L331.393 333.432L333.501 338.57Z" fill="#4DA87D"/>
<path opacity="0.4" d="M333.501 338.57H351.44V333.689L331.393 333.432L333.501 338.57Z" fill="black"/>
<path d="M385.803 125.492C392.485 128.066 399.168 151.767 399.168 151.767L381.348 158.776C381.348 158.776 376.032 146.52 374.22 137.412C372.359 127.858 378.229 122.582 385.803 125.492Z" fill="#4DA87D"/>
<path opacity="0.2" d="M385.803 125.492C392.485 128.066 399.168 151.767 399.168 151.767L381.348 158.776C381.348 158.776 376.032 146.52 374.22 137.412C372.359 127.858 378.229 122.582 385.803 125.492Z" fill="black"/>
<path d="M313.562 163.103C311.664 169.72 311.855 176.763 314.107 183.269C316.167 189.324 319.927 194.658 324.938 198.634C331.612 203.918 340.043 206.47 348.528 205.774C357.012 205.078 364.915 201.186 370.639 194.885C376.362 188.584 379.48 180.344 379.36 171.832C379.24 163.32 375.892 155.172 369.992 149.035C365.94 144.815 360.844 141.741 355.222 140.125C350.022 138.621 344.537 138.391 339.229 139.454C333.922 140.517 328.949 142.842 324.73 146.233C323.961 146.852 323.228 147.513 322.532 148.213C318.283 152.3 315.189 157.436 313.562 163.103Z" fill="#4DA87D"/>
<path opacity="0.6" d="M313.562 163.103C311.664 169.72 311.855 176.763 314.107 183.269C316.167 189.324 319.927 194.658 324.938 198.634C331.612 203.918 340.043 206.47 348.528 205.774C357.012 205.078 364.915 201.186 370.639 194.885C376.362 188.584 379.48 180.344 379.36 171.832C379.24 163.32 375.892 155.172 369.992 149.035C365.94 144.815 360.844 141.741 355.222 140.125C350.022 138.621 344.537 138.391 339.229 139.454C333.922 140.517 328.949 142.842 324.73 146.233C323.961 146.852 323.228 147.513 322.532 148.213C318.283 152.3 315.189 157.436 313.562 163.103Z" fill="black"/>
<path d="M365.775 147.718L341.619 171.032L332.363 203.306C339.467 205.346 347.046 204.984 353.923 202.277C360.801 199.57 366.593 194.669 370.401 188.334C374.208 181.999 375.819 174.584 374.983 167.241C374.146 159.897 370.91 153.034 365.775 147.718Z" fill="#4DA87D"/>
<path opacity="0.9" d="M365.775 147.718L341.619 171.032L332.363 203.306C339.467 205.346 347.046 204.984 353.923 202.277C360.801 199.57 366.593 194.669 370.401 188.334C374.208 181.999 375.819 174.584 374.983 167.241C374.146 159.897 370.91 153.034 365.775 147.718Z" fill="white"/>
<g opacity="0.7">
<path d="M341.619 171.032L365.775 147.708C361.681 143.466 356.542 140.378 350.876 138.752C345.209 137.127 339.214 137.023 333.494 138.45C327.775 139.877 322.531 142.785 318.292 146.881C314.053 150.978 310.967 156.118 309.345 161.786L341.619 171.032Z" fill="#4DA87D"/>
<path opacity="0.44" d="M341.619 171.032L365.775 147.708C361.681 143.466 356.542 140.378 350.876 138.752C345.209 137.127 339.214 137.023 333.494 138.45C327.775 139.877 322.531 142.785 318.292 146.881C314.053 150.978 310.967 156.118 309.345 161.786L341.619 171.032Z" fill="white"/>
</g>
<path d="M315.949 198.792L323.225 201.089L324.681 199.208L316.434 194.367L315.949 198.792Z" fill="#E58A7B"/>
<path d="M341.619 171.032L309.355 161.786C306.905 170.344 307.953 179.525 312.269 187.311C316.585 195.097 323.816 200.85 332.372 203.306L341.619 171.032Z" fill="#4DA87D"/>
<path opacity="0.6" d="M341.619 171.032L309.355 161.786C306.905 170.344 307.953 179.525 312.269 187.311C316.585 195.097 323.816 200.85 332.372 203.306L341.619 171.032Z" fill="black"/>
<path d="M156.658 125.591C154.925 127.364 153.064 129.324 151.351 131.284C149.639 133.244 147.916 135.244 146.302 137.293C144.689 139.343 143.164 141.451 141.699 143.58L140.63 145.193L139.64 146.827C139.303 147.371 138.986 147.926 138.65 148.48L137.828 149.995C137.494 150.859 137.303 151.772 137.264 152.698C137.184 153.891 137.184 155.088 137.264 156.281C137.449 158.849 137.779 161.404 138.254 163.934C138.699 166.528 139.244 169.132 139.887 171.716C140.531 174.299 141.164 176.933 141.867 179.487L138.056 180.913C135.747 175.869 133.817 170.661 132.284 165.33C131.494 162.592 130.888 159.804 130.472 156.984C130.264 155.479 130.158 153.96 130.155 152.44C130.128 150.648 130.43 148.866 131.046 147.183C131.284 146.609 131.413 146.372 131.571 146.035L132.036 145.045C132.343 144.392 132.67 143.748 133.026 143.124L134.016 141.233L135.106 139.392C136.561 136.97 138.144 134.627 139.848 132.373C141.531 130.126 143.273 127.928 145.114 125.819C146.956 123.71 148.827 121.691 150.955 119.661L156.658 125.591Z" fill="#E58A7B"/>
<path d="M140.818 177.873L147.589 179.853L143.085 184.427C143.085 184.427 138.204 182.922 137.521 179.596L140.818 177.873Z" fill="#E58A7B"/>
<path d="M151.698 185.1L150.55 189.466L143.085 184.457L147.589 179.893L151.698 185.1Z" fill="#E58A7B"/>
<path d="M91.0801 307.841L96.6241 313.79L111.672 303.019L106.118 297.069L91.0801 307.841Z" fill="#E58A7B"/>
<path d="M164.647 329.64L163.32 339.877L155.39 338.55L156.618 329.046L164.647 329.64Z" fill="#CF6F64"/>
<path d="M106.118 297.069L111.662 303.029L105.435 307.484L99.6929 301.663L106.118 297.069Z" fill="#CF6F64"/>
<path d="M178.537 166.686C178.537 166.686 162.855 219.206 155.192 249.48C147.114 281.388 108.534 307.405 108.534 307.405L100.297 299.218C100.297 299.218 126.086 277.438 133.957 247.668C149.856 187.209 142.213 174.408 154.885 162.113L178.537 166.686Z" fill="#4DA87D"/>
<path opacity="0.6" d="M178.537 166.686C178.537 166.686 162.855 219.206 155.192 249.48C147.114 281.388 108.534 307.405 108.534 307.405L100.297 299.218C100.297 299.218 126.086 277.438 133.957 247.668C149.856 187.209 142.213 174.408 154.885 162.113L178.537 166.686Z" fill="black"/>
<path d="M99.0494 312.84L94.4261 304.92C94.3504 304.783 94.2271 304.678 94.0794 304.625C93.9318 304.572 93.7699 304.575 93.6242 304.633L87.0308 307.286C86.8671 307.364 86.7215 307.475 86.6034 307.612C86.4853 307.75 86.3973 307.91 86.3451 308.084C86.2929 308.257 86.2776 308.44 86.3002 308.62C86.3228 308.799 86.3828 308.972 86.4764 309.127C88.1396 311.85 89.0702 313.088 91.1096 316.562C92.3669 318.701 93.9806 321.948 95.7032 324.898C97.4258 327.848 100.366 326.344 99.9008 324.967C97.8218 318.78 98.9108 316.988 99.3167 314.236C99.3902 313.754 99.2958 313.261 99.0494 312.84Z" fill="#263238"/>
<path d="M109.237 308.573L98.9604 298.346L101.752 295.248L114.266 305.9L109.237 308.573Z" fill="#F5F5F5"/>
<path opacity="0.3" d="M171.171 177.873C160.885 185.793 160.192 216.048 160.43 229.71C165.667 210.613 171.854 189.357 175.468 177.071C174.478 176.22 173.062 176.408 171.171 177.873Z" fill="black"/>
<path d="M100.713 317.156C100.615 317.154 100.519 317.137 100.426 317.107C99.4358 316.81 98.7527 315.018 98.4458 313.979C98.4345 313.942 98.4341 313.903 98.4446 313.866C98.4552 313.829 98.4762 313.796 98.5052 313.771C98.5355 313.749 98.5719 313.737 98.6092 313.737C98.6465 313.737 98.6828 313.749 98.7131 313.771C99.0101 313.919 101.614 315.275 101.683 316.305C101.694 316.416 101.676 316.528 101.631 316.631C101.586 316.733 101.515 316.822 101.426 316.889C101.225 317.056 100.974 317.15 100.713 317.156ZM98.9408 314.315C99.4259 315.691 100.01 316.582 100.535 316.751C100.651 316.78 100.773 316.779 100.89 316.748C101.006 316.717 101.112 316.656 101.198 316.572C101.24 316.547 101.274 316.511 101.295 316.467C101.316 316.423 101.324 316.373 101.317 316.325C101.257 315.81 99.9902 314.889 98.9408 314.315Z" fill="#4DA87D"/>
<path d="M100.98 314.652C100.123 314.649 99.2778 314.457 98.5048 314.087C98.4782 314.068 98.4566 314.043 98.4416 314.014C98.4267 313.984 98.4189 313.952 98.4189 313.919C98.4189 313.886 98.4267 313.854 98.4416 313.825C98.4566 313.795 98.4782 313.77 98.5048 313.751C98.5939 313.751 100.544 312.573 101.653 312.939C101.797 312.98 101.929 313.053 102.041 313.152C102.152 313.252 102.239 313.375 102.296 313.513C102.373 313.646 102.401 313.8 102.378 313.952C102.355 314.103 102.281 314.241 102.168 314.345C101.818 314.579 101.399 314.687 100.98 314.652ZM98.9998 313.909C99.9106 314.275 101.485 314.424 101.9 314.058C101.97 313.998 102.029 313.899 101.9 313.672C101.863 313.582 101.807 313.502 101.735 313.437C101.663 313.372 101.578 313.323 101.485 313.295C100.614 313.246 99.7477 313.46 98.9998 313.909Z" fill="#4DA87D"/>
<path d="M154.242 347.47L162.271 348.064L164.647 329.63L156.628 329.036L154.242 347.47Z" fill="#E58A7B"/>
<path d="M186.556 168.3C186.556 168.3 188.536 231.848 184.071 255.786C179.398 280.685 165.172 337.313 165.172 337.313L153.599 335.818C153.599 335.818 160.925 278.606 164.023 253.876C167.419 226.908 162.974 163.736 162.974 163.736L186.556 168.3Z" fill="#4DA87D"/>
<path opacity="0.6" d="M186.556 168.3C186.556 168.3 188.536 231.848 184.071 255.786C179.398 280.685 165.172 337.313 165.172 337.313L153.599 335.818C153.599 335.818 160.925 278.606 164.023 253.876C167.419 226.908 162.974 163.736 162.974 163.736L186.556 168.3Z" fill="black"/>
<path d="M195.466 92.7036C195.357 93.3471 195.614 93.9213 196.03 94.0104C196.446 94.0995 196.872 93.6342 197.02 93.0204C197.169 92.4066 196.872 91.8027 196.456 91.7235C196.04 91.6443 195.575 92.07 195.466 92.7036Z" fill="#263238"/>
<path d="M196.218 91.7037L197.832 91.5552C197.832 91.5552 196.842 92.6046 196.218 91.7037Z" fill="#263238"/>
<path d="M195.901 93.4263C196.233 94.9939 196.776 96.5092 197.515 97.9308C197.145 98.1 196.743 98.1875 196.337 98.1875C195.93 98.1875 195.528 98.1 195.159 97.9308L195.901 93.4263Z" fill="#DF5753"/>
<path d="M197.01 90.09C196.936 90.0902 196.864 90.0687 196.802 90.0282C196.741 89.9877 196.693 89.93 196.663 89.8623C196.476 89.4133 196.189 89.013 195.824 88.6922C195.458 88.3713 195.024 88.1383 194.555 88.011C194.506 88.0026 194.459 87.9847 194.417 87.9583C194.376 87.9318 194.339 87.8974 194.311 87.8569C194.282 87.8164 194.262 87.7708 194.251 87.7225C194.24 87.6741 194.239 87.6242 194.248 87.5754C194.267 87.4761 194.325 87.3883 194.408 87.3309C194.491 87.2735 194.594 87.2511 194.693 87.2685C195.285 87.4144 195.835 87.6973 196.297 88.0946C196.76 88.4918 197.123 88.9922 197.356 89.5554C197.397 89.6475 197.4 89.7518 197.365 89.8461C197.33 89.9404 197.259 90.0173 197.168 90.0603L197.01 90.09Z" fill="#263238"/>
<path d="M175.151 98.01C175.3 102.861 174.805 111.613 171.003 114.098C171.003 114.098 171.498 119.048 180.24 120.78C189.853 122.641 185.625 116.929 185.625 116.929C180.576 114.662 181.358 110.821 182.873 107.366L175.151 98.01Z" fill="#E58A7B"/>
<path d="M199.901 123.968C201.881 125.473 204.059 127.067 206.207 128.522C208.356 129.977 210.553 131.492 212.791 132.809C215.028 134.125 217.295 135.422 219.572 136.64C221.841 137.813 224.171 138.863 226.552 139.788C226.76 139.867 226.69 139.788 226.74 139.857H226.869C226.997 139.876 227.127 139.876 227.255 139.857C227.651 139.859 228.045 139.82 228.433 139.739C229.484 139.482 230.503 139.11 231.472 138.63C233.715 137.492 235.857 136.167 237.877 134.67C239.996 133.175 242.065 131.541 244.095 129.839C246.124 128.136 248.144 126.364 250.084 124.601L253.054 127.324C249.659 131.748 245.869 135.854 241.729 139.59C239.557 141.531 237.207 143.261 234.709 144.758C233.304 145.583 231.809 146.247 230.254 146.738C229.337 147.012 228.389 147.172 227.433 147.213C226.884 147.243 226.334 147.22 225.79 147.144C225.496 147.109 225.205 147.056 224.918 146.985C224.661 146.916 224.255 146.807 224.146 146.758C218.754 144.979 213.564 142.636 208.663 139.768C206.247 138.362 203.861 136.907 201.544 135.343C199.228 133.779 197.01 132.185 194.743 130.334L199.901 123.968Z" fill="#E58A7B"/>
<path d="M249.48 125.354L251.836 119.285L256.786 124.235C256.786 124.235 254.44 128.75 251.074 128.759L249.48 125.354Z" fill="#E58A7B"/>
<path d="M256.717 117.533L261.419 119.008L256.826 124.225L251.856 119.285L256.717 117.533Z" fill="#E58A7B"/>
<path d="M162.766 346.916H153.747C153.59 346.914 153.437 346.969 153.317 347.071C153.197 347.173 153.118 347.315 153.094 347.47L151.876 354.608C151.852 354.787 151.866 354.969 151.919 355.141C151.971 355.314 152.06 355.473 152.179 355.608C152.298 355.743 152.445 355.851 152.61 355.925C152.775 355.998 152.953 356.035 153.133 356.034C156.282 355.984 157.796 355.796 161.766 355.796C164.202 355.796 169.251 356.054 172.656 356.054C176.062 356.054 176.289 352.717 174.894 352.41C168.637 351.064 166.211 349.193 164.132 347.411C163.753 347.084 163.267 346.908 162.766 346.916Z" fill="#263238"/>
<path d="M174.359 86.823C173.557 94.743 173.042 98.0397 176.339 102.821C181.289 109.999 191.189 109.553 194.386 102.119C197.228 95.436 198.079 83.6352 190.902 79.0416C189.375 78.0051 187.605 77.384 185.766 77.2394C183.927 77.0948 182.082 77.4317 180.412 78.217C178.743 79.0023 177.307 80.2088 176.245 81.7179C175.184 83.2269 174.533 84.9864 174.359 86.823Z" fill="#E58A7B"/>
<path d="M175.23 104.049C171.468 102.515 167.954 96.4557 168.092 86.9814C168.231 77.5071 175.29 72.0126 187.892 76.0023C200.495 79.992 187.526 109.078 175.23 104.049Z" fill="#263238"/>
<path d="M185.902 76.8735C189.615 75.4182 197.832 77.22 197.832 84.9519L189.843 91.4364L185.902 76.8735Z" fill="#263238"/>
<path d="M184.863 76.8042C189.813 76.5171 191.733 76.5369 196.218 77.7942C193.268 74.25 187.744 75.4182 184.863 76.8042Z" fill="#263238"/>
<path d="M189.149 90.9414C188.996 92.4119 189.297 93.894 190.011 95.1885C191.001 97.0101 192.496 96.7626 193.05 95.2875C193.555 93.9609 193.644 91.4166 192.258 90.0504C190.872 88.6842 189.387 89.3079 189.149 90.9414Z" fill="#E58A7B"/>
<path d="M168.874 79.9821C171.745 81.7443 181.507 80.289 183.615 76.5369C185.724 72.7848 178.438 66.5082 171.834 66.7359C165.231 66.9636 162.479 76.0419 168.874 79.9821Z" fill="#4DA87D"/>
<path d="M167.637 338.006L151.133 335.877L151.341 331.957L169.29 332.739L167.637 338.006Z" fill="#F5F5F5"/>
<path d="M165.756 348.322C164.907 348.306 164.062 348.21 163.231 348.035C163.192 348.028 163.157 348.009 163.13 347.981C163.103 347.952 163.087 347.915 163.083 347.876C163.078 347.837 163.084 347.797 163.102 347.762C163.12 347.727 163.147 347.698 163.182 347.678C163.548 347.49 166.795 345.847 167.765 346.401C167.857 346.45 167.933 346.523 167.987 346.612C168.041 346.701 168.071 346.802 168.072 346.906C168.092 347.078 168.069 347.252 168.005 347.412C167.941 347.573 167.838 347.715 167.706 347.827C167.133 348.214 166.444 348.389 165.756 348.322ZM163.865 347.767C165.637 348.064 166.954 347.985 167.459 347.549C167.544 347.473 167.61 347.378 167.651 347.271C167.693 347.164 167.708 347.049 167.696 346.936C167.696 346.894 167.686 346.852 167.665 346.816C167.644 346.779 167.614 346.749 167.577 346.728C167.053 346.431 165.201 347.134 163.865 347.767Z" fill="#4DA87D"/>
<path d="M163.271 348.034C163.232 348.043 163.191 348.043 163.152 348.034C163.126 348.013 163.107 347.985 163.095 347.954C163.082 347.923 163.078 347.889 163.083 347.856C163.083 347.718 163.469 344.431 165.261 344.431H165.419C165.934 344.48 166.083 344.748 166.122 344.956C166.271 345.866 164.32 347.609 163.35 348.044L163.271 348.034ZM165.251 344.787C164.093 344.787 163.637 346.688 163.489 347.51C164.479 346.906 165.815 345.53 165.726 344.995C165.726 344.995 165.726 344.827 165.36 344.787H165.251Z" fill="#4DA87D"/>
<path d="M157.103 113.197C151.53 113.454 146.213 122.691 146.213 122.691L153.569 137.719C153.569 137.719 163.538 129.413 163.667 121.245C163.776 115.939 162.578 112.949 157.103 113.197Z" fill="#4DA87D"/>
<path opacity="0.8" d="M157.103 113.197C151.53 113.454 146.213 122.691 146.213 122.691L153.569 137.719C153.569 137.719 163.538 129.413 163.667 121.245C163.776 115.939 162.578 112.949 157.103 113.197Z" fill="white"/>
<path d="M154.846 162.093L187.04 168.33C202.247 123.542 198.614 122.097 198.614 122.097C196.248 120.82 193.809 119.686 191.307 118.701L190.862 118.533C188.813 117.79 188.377 117.671 185.615 116.87C180.873 115.751 176.457 114.84 170.993 114.048L169.953 113.9C168.963 113.781 167.973 113.672 167.033 113.583C166.399 113.513 165.756 113.474 165.152 113.424L163.073 113.315C159.548 113.137 157.034 113.197 157.034 113.197C158.875 141.144 157.529 149.173 154.846 162.093Z" fill="#4DA87D"/>
<path opacity="0.6" d="M154.846 162.093L187.04 168.33C202.247 123.542 198.614 122.097 198.614 122.097C196.248 120.82 193.809 119.686 191.307 118.701L190.862 118.533C188.813 117.79 188.377 117.671 185.615 116.87C180.873 115.751 176.457 114.84 170.993 114.048L169.953 113.9C168.963 113.781 167.973 113.672 167.033 113.583C166.399 113.513 165.756 113.474 165.152 113.424L163.073 113.315C159.548 113.137 157.034 113.197 157.034 113.197C158.875 141.144 157.529 149.173 154.846 162.093Z" fill="white"/>
<path opacity="0.2" d="M190.763 132.868C192.04 135.383 193.555 138.719 195.584 141.026C196.169 138.907 196.654 137.066 197.069 135.353L190.763 132.868Z" fill="#4DA87D"/>
<path d="M164.954 139.59C172.983 133.244 174.676 127.344 173.557 122.186C172.438 117.028 171.151 108.029 172.072 105.019C172.993 102.01 176.2 95.7627 175.547 90.4266C174.893 85.0905 173.369 77.6754 174.834 74.4678C176.299 71.2602 180.952 69.3594 177.18 64.8054C175.349 62.5977 167.587 62.2611 165.558 68.4189C163.528 74.5767 155.192 77.2398 151.916 77.8536C148.639 78.4674 142.867 82.1502 141.867 88.1496C140.867 94.149 136.838 96.5151 131.304 99.594C125.77 102.673 117.81 114.741 120.978 125.453C125.255 140.115 152.995 149.074 164.954 139.59Z" fill="#263238"/>
<path d="M189.09 119.384C191.585 117.404 202.326 123.918 205.613 126.641L203.692 140.758C203.692 140.758 188.347 134.402 187.298 130.056C186.169 125.532 187.11 120.899 189.09 119.384Z" fill="#4DA87D"/>
<path opacity="0.6" d="M189.09 119.384C191.585 117.404 202.326 123.918 205.613 126.641L203.692 140.758C203.692 140.758 188.347 134.402 187.298 130.056C186.169 125.532 187.11 120.899 189.09 119.384Z" fill="white"/>
<path d="M154.668 160.123L152.747 162.707C152.599 162.905 152.826 163.182 153.193 163.261L186.962 169.795C187.249 169.854 187.516 169.795 187.565 169.577L188.328 166.766C188.377 166.577 188.159 166.36 187.843 166.3L155.232 159.984C155.134 159.955 155.03 159.952 154.931 159.977C154.832 160.001 154.741 160.051 154.668 160.123Z" fill="#4DA87D"/>
<path d="M158.45 164.597L157.578 164.429C157.41 164.429 157.291 164.281 157.321 164.172L158.311 160.529C158.311 160.42 158.509 160.36 158.687 160.39L159.558 160.558C159.727 160.558 159.845 160.707 159.816 160.816L158.826 164.459C158.796 164.568 158.628 164.627 158.45 164.597Z" fill="#4DA87D"/>
<path d="M180.507 168.914L179.626 168.746C179.457 168.746 179.339 168.597 179.368 168.488L180.358 164.845C180.358 164.746 180.556 164.687 180.735 164.716L181.606 164.885C181.784 164.885 181.903 165.033 181.873 165.142L180.883 168.785C180.843 168.894 180.675 168.953 180.507 168.914Z" fill="#4DA87D"/>
<path opacity="0.6" d="M158.45 164.597L157.578 164.429C157.41 164.429 157.291 164.281 157.321 164.172L158.311 160.529C158.311 160.42 158.509 160.36 158.687 160.39L159.558 160.558C159.727 160.558 159.845 160.707 159.816 160.816L158.826 164.459C158.796 164.568 158.628 164.627 158.45 164.597Z" fill="black"/>
<path opacity="0.6" d="M180.507 168.914L179.626 168.746C179.457 168.746 179.339 168.597 179.368 168.488L180.358 164.845C180.358 164.746 180.556 164.687 180.735 164.716L181.606 164.885C181.784 164.885 181.903 165.033 181.873 165.142L180.883 168.785C180.843 168.894 180.675 168.953 180.507 168.914Z" fill="black"/>
</svg>
