<svg width="512" height="512" viewBox="0 0 512 512" fill="none" xmlns="http://www.w3.org/2000/svg">
<g clip-path="url(#clip0_1089_4621)">
<path d="M410.3 231L421.6 219.7L387.7 185.8L325.6 123.7L291.7 89.8L280.4 101.1L257.8 123.7L58.6 322.9C48.2 333.3 40.6 346.2 36.4 360.3L0.999961 480.7C-1.50004 489.1 0.799961 498.2 7.09996 504.4C13.4 510.6 22.4 512.9 30.8 510.5L151.1 475.1C165.2 470.9 178.1 463.3 188.5 452.9L387.7 253.7L410.3 231ZM160 399.4L150.9 422.1C146.9 425.2 142.4 427.5 137.6 429L59.4 452L82.4 373.9C83.8 369 86.2 364.5 89.3 360.6L112 351.5V383.5C112 392.3 119.2 399.5 128 399.5H160V399.4ZM362.7 18.7L348.3 33.2L325.7 55.7999L314.3 67.0999L348.2 101L410.3 163.1L444.2 197L455.5 185.7L478.1 163.1L492.6 148.6C517.6 123.6 517.6 83.0999 492.6 58.0999L453.3 18.7C428.3 -6.30005 387.8 -6.30005 362.8 18.7H362.7ZM315.3 186.7L171.3 330.7C165.1 336.9 154.9 336.9 148.7 330.7C142.5 324.5 142.5 314.3 148.7 308.1L292.7 164.1C298.9 157.9 309.1 157.9 315.3 164.1C321.5 170.3 321.5 180.5 315.3 186.7Z" fill="#2980B9"/>
</g>
<defs>
<clipPath id="clip0_1089_4621">
<rect width="512" height="512" fill="white"/>
</clipPath>
</defs>
</svg>
