<svg width="15" height="12" viewBox="0 0 15 12" fill="none" xmlns="http://www.w3.org/2000/svg">
<path d="M6.5625 12C6.5625 12 5.625 12 5.625 11C5.625 10 6.5625 7 10.3125 7C14.0625 7 15 10 15 11C15 12 14.0625 12 14.0625 12H6.5625ZM10.3125 6C11.0584 6 11.7738 5.68393 12.3012 5.12132C12.8287 4.55871 13.125 3.79565 13.125 3C13.125 2.20435 12.8287 1.44129 12.3012 0.87868C11.7738 0.316071 11.0584 0 10.3125 0C9.56658 0 8.85121 0.316071 8.32376 0.87868C7.79632 1.44129 7.5 2.20435 7.5 3C7.5 3.79565 7.79632 4.55871 8.32376 5.12132C8.85121 5.68393 9.56658 6 10.3125 6ZM4.89 12C4.75102 11.6878 4.68171 11.3455 4.6875 11C4.6875 9.645 5.325 8.25 6.5025 7.28C5.91477 7.08684 5.30245 6.99237 4.6875 7C0.9375 7 0 10 0 11C0 12 0.9375 12 0.9375 12H4.89ZM4.21875 6C4.84035 6 5.43649 5.73661 5.87603 5.26777C6.31557 4.79893 6.5625 4.16304 6.5625 3.5C6.5625 2.83696 6.31557 2.20107 5.87603 1.73223C5.43649 1.26339 4.84035 1 4.21875 1C3.59715 1 3.00101 1.26339 2.56147 1.73223C2.12193 2.20107 1.875 2.83696 1.875 3.5C1.875 4.16304 2.12193 4.79893 2.56147 5.26777C3.00101 5.73661 3.59715 6 4.21875 6Z" fill="#D5AF36"/>
</svg>
